<mxfile host="Electron" agent="Mozilla/5.0 (Windows NT 10.0; Win64; x64) AppleWebKit/537.36 (KHTML, like Gecko) draw.io/24.7.17 Chrome/128.0.6613.36 Electron/32.0.1 Safari/537.36" version="24.7.17">
  <diagram name="main" id="Yor0Zr-ZIr2lH6L3l4fF">
    <mxGraphModel dx="1434" dy="836" grid="1" gridSize="10" guides="1" tooltips="1" connect="1" arrows="1" fold="1" page="1" pageScale="1" pageWidth="827" pageHeight="1169" math="0" shadow="0">
      <root>
        <mxCell id="0" />
        <mxCell id="1" parent="0" />
        <mxCell id="jDlv3GE1ao5g64Kmucw2-7" style="edgeStyle=orthogonalEdgeStyle;rounded=0;orthogonalLoop=1;jettySize=auto;html=1;exitX=0.5;exitY=1;exitDx=0;exitDy=0;entryX=0.5;entryY=0;entryDx=0;entryDy=0;fontFamily=JetBrains Mono;fontSize=10;" parent="1" source="jDlv3GE1ao5g64Kmucw2-1" target="jDlv3GE1ao5g64Kmucw2-6" edge="1">
          <mxGeometry relative="1" as="geometry" />
        </mxCell>
        <mxCell id="jDlv3GE1ao5g64Kmucw2-1" value="Начало" style="rounded=1;whiteSpace=wrap;html=1;arcSize=50;container=0;strokeWidth=2;fontFamily=JetBrains Mono;fontSize=10;" parent="1" vertex="1">
          <mxGeometry x="10" y="10" width="200" height="30" as="geometry" />
        </mxCell>
        <mxCell id="jDlv3GE1ao5g64Kmucw2-2" value="Конец" style="rounded=1;whiteSpace=wrap;html=1;arcSize=50;container=0;strokeWidth=2;fontFamily=JetBrains Mono;fontSize=10;" parent="1" vertex="1">
          <mxGeometry x="390" y="1360" width="200" height="30" as="geometry" />
        </mxCell>
        <mxCell id="jDlv3GE1ao5g64Kmucw2-67" style="edgeStyle=orthogonalEdgeStyle;rounded=0;orthogonalLoop=1;jettySize=auto;html=1;exitX=0.5;exitY=0;exitDx=0;exitDy=0;entryX=0.5;entryY=0;entryDx=0;entryDy=0;fontFamily=JetBrains Mono;fontSize=10;" parent="1" source="jDlv3GE1ao5g64Kmucw2-3" target="jDlv3GE1ao5g64Kmucw2-2" edge="1">
          <mxGeometry relative="1" as="geometry" />
        </mxCell>
        <mxCell id="jDlv3GE1ao5g64Kmucw2-3" value="&lt;div style=&quot;font-size: 10px;&quot;&gt;exit = 1&lt;/div&gt;&lt;div style=&quot;font-size: 10px;&quot;&gt;Ввод&lt;/div&gt;" style="shape=loopLimit;whiteSpace=wrap;html=1;size=20;direction=west;strokeWidth=2;fontFamily=JetBrains Mono;fontSize=10;" parent="1" vertex="1">
          <mxGeometry x="390" y="1300" width="200" height="41" as="geometry" />
        </mxCell>
        <mxCell id="jDlv3GE1ao5g64Kmucw2-14" style="edgeStyle=orthogonalEdgeStyle;rounded=0;orthogonalLoop=1;jettySize=auto;html=1;exitX=0.5;exitY=1;exitDx=0;exitDy=0;entryX=0.5;entryY=0;entryDx=0;entryDy=0;fontFamily=JetBrains Mono;fontSize=10;" parent="1" source="jDlv3GE1ao5g64Kmucw2-4" target="jDlv3GE1ao5g64Kmucw2-9" edge="1">
          <mxGeometry relative="1" as="geometry">
            <mxPoint x="110" y="250" as="targetPoint" />
          </mxGeometry>
        </mxCell>
        <mxCell id="jDlv3GE1ao5g64Kmucw2-4" value="&lt;div style=&quot;font-size: 10px;&quot;&gt;Ввод&lt;/div&gt;&lt;div style=&quot;font-size: 10px;&quot;&gt;&lt;br style=&quot;font-size: 10px;&quot;&gt;&lt;/div&gt;" style="shape=loopLimit;whiteSpace=wrap;html=1;size=18;direction=east;strokeWidth=2;fontFamily=JetBrains Mono;fontSize=10;" parent="1" vertex="1">
          <mxGeometry x="10" y="130" width="200" height="39" as="geometry" />
        </mxCell>
        <mxCell id="jDlv3GE1ao5g64Kmucw2-8" style="edgeStyle=orthogonalEdgeStyle;rounded=0;orthogonalLoop=1;jettySize=auto;html=1;exitX=0.5;exitY=1;exitDx=0;exitDy=0;entryX=0.5;entryY=0;entryDx=0;entryDy=0;fontFamily=JetBrains Mono;fontSize=10;" parent="1" source="jDlv3GE1ao5g64Kmucw2-6" target="jDlv3GE1ao5g64Kmucw2-4" edge="1">
          <mxGeometry relative="1" as="geometry" />
        </mxCell>
        <mxCell id="jDlv3GE1ao5g64Kmucw2-6" value="&lt;div style=&quot;font-size: 10px;&quot;&gt;&lt;span style=&quot;background-color: initial; font-size: 10px;&quot;&gt;choice = -1,&amp;nbsp;&lt;/span&gt;highlight = 0,&lt;/div&gt;&lt;div style=&quot;font-size: 10px;&quot;&gt;&lt;span style=&quot;background-color: initial; font-size: 10px;&quot;&gt;limits = 0, rect = 0, exit = 0,&lt;/span&gt;&lt;/div&gt;&lt;div style=&quot;font-size: 10px;&quot;&gt;&lt;span style=&quot;background-color: initial; font-size: 10px;&quot;&gt;max_items = 5&lt;/span&gt;&lt;/div&gt;" style="rounded=0;whiteSpace=wrap;html=1;strokeWidth=2;fontFamily=JetBrains Mono;fontSize=10;" parent="1" vertex="1">
          <mxGeometry x="10" y="60" width="200" height="50" as="geometry" />
        </mxCell>
        <mxCell id="jDlv3GE1ao5g64Kmucw2-19" style="edgeStyle=orthogonalEdgeStyle;rounded=0;orthogonalLoop=1;jettySize=auto;html=1;exitX=0.5;exitY=1;exitDx=0;exitDy=0;entryX=0.5;entryY=0;entryDx=0;entryDy=0;fontFamily=JetBrains Mono;fontSize=10;" parent="1" source="jDlv3GE1ao5g64Kmucw2-9" target="jDlv3GE1ao5g64Kmucw2-18" edge="1">
          <mxGeometry relative="1" as="geometry" />
        </mxCell>
        <mxCell id="jDlv3GE1ao5g64Kmucw2-9" value="Ввод c" style="shape=parallelogram;perimeter=parallelogramPerimeter;whiteSpace=wrap;html=1;fixedSize=1;size=30;container=0;strokeWidth=2;fontFamily=JetBrains Mono;fontSize=10;" parent="1" vertex="1">
          <mxGeometry x="10" y="210" width="200" height="30" as="geometry" />
        </mxCell>
        <mxCell id="jDlv3GE1ao5g64Kmucw2-10" value="c - значение ввода с клавиатуры в ANSI" style="strokeWidth=2;html=1;shape=mxgraph.flowchart.annotation_1;align=left;pointerEvents=1;fontFamily=JetBrains Mono;fontSize=10;" parent="1" vertex="1">
          <mxGeometry x="245" y="210" width="10" height="30" as="geometry" />
        </mxCell>
        <mxCell id="jDlv3GE1ao5g64Kmucw2-12" style="edgeStyle=orthogonalEdgeStyle;rounded=0;orthogonalLoop=1;jettySize=auto;html=1;exitX=1;exitY=0.5;exitDx=0;exitDy=0;entryX=0;entryY=0.5;entryDx=0;entryDy=0;entryPerimeter=0;dashed=1;endArrow=none;endFill=0;fontFamily=JetBrains Mono;fontSize=10;" parent="1" source="jDlv3GE1ao5g64Kmucw2-9" target="jDlv3GE1ao5g64Kmucw2-10" edge="1">
          <mxGeometry relative="1" as="geometry" />
        </mxCell>
        <mxCell id="jDlv3GE1ao5g64Kmucw2-15" style="edgeStyle=orthogonalEdgeStyle;rounded=0;orthogonalLoop=1;jettySize=auto;html=1;exitX=0.5;exitY=1;exitDx=0;exitDy=0;entryX=0.5;entryY=0;entryDx=0;entryDy=0;fontFamily=JetBrains Mono;fontSize=10;" parent="1" target="jDlv3GE1ao5g64Kmucw2-9" edge="1">
          <mxGeometry relative="1" as="geometry">
            <mxPoint x="110" y="190" as="sourcePoint" />
          </mxGeometry>
        </mxCell>
        <mxCell id="jDlv3GE1ao5g64Kmucw2-16" value="choice - выбранный пункт меню,&lt;div style=&quot;font-size: 10px;&quot;&gt;highlight - выбор пункта меню,&lt;/div&gt;&lt;div style=&quot;font-size: 10px;&quot;&gt;a, b - верхний и нижний пределы интегрирования,&lt;/div&gt;&lt;div style=&quot;font-size: 10px;&quot;&gt;n - кол-во треугольников,&lt;/div&gt;&lt;div style=&quot;font-size: 10px;&quot;&gt;limits, rect, exit - переменные с булевым знач.,&lt;/div&gt;&lt;div style=&quot;font-size: 10px;&quot;&gt;max_items - кол-во пунктов в меню.&lt;/div&gt;" style="strokeWidth=2;html=1;shape=mxgraph.flowchart.annotation_1;align=left;pointerEvents=1;fontFamily=JetBrains Mono;fontSize=10;" parent="1" vertex="1">
          <mxGeometry x="250" y="45" width="10" height="80" as="geometry" />
        </mxCell>
        <mxCell id="jDlv3GE1ao5g64Kmucw2-17" style="edgeStyle=orthogonalEdgeStyle;rounded=0;orthogonalLoop=1;jettySize=auto;html=1;exitX=1;exitY=0.5;exitDx=0;exitDy=0;entryX=0;entryY=0.5;entryDx=0;entryDy=0;entryPerimeter=0;dashed=1;endArrow=none;endFill=0;fontFamily=JetBrains Mono;fontSize=10;" parent="1" source="jDlv3GE1ao5g64Kmucw2-6" target="jDlv3GE1ao5g64Kmucw2-16" edge="1">
          <mxGeometry relative="1" as="geometry" />
        </mxCell>
        <mxCell id="jDlv3GE1ao5g64Kmucw2-27" style="edgeStyle=orthogonalEdgeStyle;rounded=0;orthogonalLoop=1;jettySize=auto;html=1;exitX=0.5;exitY=1;exitDx=0;exitDy=0;entryX=0.5;entryY=0;entryDx=0;entryDy=0;fontFamily=JetBrains Mono;fontSize=10;" parent="1" source="jDlv3GE1ao5g64Kmucw2-18" target="jDlv3GE1ao5g64Kmucw2-38" edge="1">
          <mxGeometry relative="1" as="geometry">
            <mxPoint x="110" y="360" as="targetPoint" />
          </mxGeometry>
        </mxCell>
        <mxCell id="jDlv3GE1ao5g64Kmucw2-29" style="edgeStyle=orthogonalEdgeStyle;rounded=0;orthogonalLoop=1;jettySize=auto;html=1;exitX=0.5;exitY=1;exitDx=0;exitDy=0;entryX=0.5;entryY=0;entryDx=0;entryDy=0;fontFamily=JetBrains Mono;fontSize=10;" parent="1" source="jDlv3GE1ao5g64Kmucw2-18" target="jDlv3GE1ao5g64Kmucw2-22" edge="1">
          <mxGeometry relative="1" as="geometry">
            <Array as="points">
              <mxPoint x="110" y="340" />
              <mxPoint x="700" y="340" />
            </Array>
          </mxGeometry>
        </mxCell>
        <mxCell id="jDlv3GE1ao5g64Kmucw2-30" value="13" style="edgeLabel;html=1;align=center;verticalAlign=middle;resizable=0;points=[];fontFamily=JetBrains Mono;fontSize=10;" parent="jDlv3GE1ao5g64Kmucw2-29" vertex="1" connectable="0">
          <mxGeometry x="0.9018" y="1" relative="1" as="geometry">
            <mxPoint x="28" y="11" as="offset" />
          </mxGeometry>
        </mxCell>
        <mxCell id="jDlv3GE1ao5g64Kmucw2-18" value="с" style="rhombus;whiteSpace=wrap;html=1;strokeWidth=2;fontFamily=JetBrains Mono;fontSize=10;" parent="1" vertex="1">
          <mxGeometry x="10" y="260" width="200" height="60" as="geometry" />
        </mxCell>
        <mxCell id="s0nGAhoIwVFG6jky1lM2-13" style="edgeStyle=orthogonalEdgeStyle;rounded=0;orthogonalLoop=1;jettySize=auto;html=1;exitX=0.5;exitY=1;exitDx=0;exitDy=0;entryX=0.5;entryY=0;entryDx=0;entryDy=0;fontFamily=JetBrains Mono;fontSize=10;" parent="1" source="jDlv3GE1ao5g64Kmucw2-22" target="jDlv3GE1ao5g64Kmucw2-68" edge="1">
          <mxGeometry relative="1" as="geometry">
            <Array as="points">
              <mxPoint x="700" y="540" />
              <mxPoint x="110" y="540" />
            </Array>
          </mxGeometry>
        </mxCell>
        <mxCell id="jDlv3GE1ao5g64Kmucw2-22" value="choice = highlight" style="rounded=0;whiteSpace=wrap;html=1;strokeWidth=2;fontFamily=JetBrains Mono;fontSize=10;" parent="1" vertex="1">
          <mxGeometry x="600" y="361.72" width="200" height="30" as="geometry" />
        </mxCell>
        <mxCell id="jDlv3GE1ao5g64Kmucw2-32" style="edgeStyle=orthogonalEdgeStyle;rounded=0;orthogonalLoop=1;jettySize=auto;html=1;exitX=0.5;exitY=1;exitDx=0;exitDy=0;entryX=0.5;entryY=0;entryDx=0;entryDy=0;fontFamily=JetBrains Mono;fontSize=10;" parent="1" target="jDlv3GE1ao5g64Kmucw2-38" edge="1">
          <mxGeometry relative="1" as="geometry">
            <mxPoint x="110" y="360" as="targetPoint" />
            <mxPoint x="110" y="320" as="sourcePoint" />
          </mxGeometry>
        </mxCell>
        <mxCell id="jDlv3GE1ao5g64Kmucw2-34" value="224:72" style="edgeLabel;html=1;align=center;verticalAlign=middle;resizable=0;points=[];fontFamily=JetBrains Mono;fontSize=10;" parent="jDlv3GE1ao5g64Kmucw2-32" vertex="1" connectable="0">
          <mxGeometry x="0.3143" y="-1" relative="1" as="geometry">
            <mxPoint x="21" y="4" as="offset" />
          </mxGeometry>
        </mxCell>
        <mxCell id="jDlv3GE1ao5g64Kmucw2-33" style="edgeStyle=orthogonalEdgeStyle;rounded=0;orthogonalLoop=1;jettySize=auto;html=1;exitX=0.5;exitY=1;exitDx=0;exitDy=0;fontFamily=JetBrains Mono;fontSize=10;entryX=0.5;entryY=0;entryDx=0;entryDy=0;" parent="1" target="jDlv3GE1ao5g64Kmucw2-53" edge="1">
          <mxGeometry relative="1" as="geometry">
            <mxPoint x="610" y="440" as="targetPoint" />
            <Array as="points">
              <mxPoint x="110" y="340" />
              <mxPoint x="460" y="340" />
            </Array>
            <mxPoint x="110" y="320" as="sourcePoint" />
          </mxGeometry>
        </mxCell>
        <mxCell id="jDlv3GE1ao5g64Kmucw2-35" value="224:80" style="edgeLabel;html=1;align=center;verticalAlign=middle;resizable=0;points=[];fontFamily=JetBrains Mono;fontSize=10;" parent="jDlv3GE1ao5g64Kmucw2-33" vertex="1" connectable="0">
          <mxGeometry x="0.9238" y="2" relative="1" as="geometry">
            <mxPoint x="18" y="3" as="offset" />
          </mxGeometry>
        </mxCell>
        <mxCell id="s0nGAhoIwVFG6jky1lM2-12" style="edgeStyle=orthogonalEdgeStyle;rounded=0;orthogonalLoop=1;jettySize=auto;html=1;exitX=0.5;exitY=1;exitDx=0;exitDy=0;entryX=0.5;entryY=0;entryDx=0;entryDy=0;fontFamily=JetBrains Mono;fontSize=10;" parent="1" source="jDlv3GE1ao5g64Kmucw2-42" target="jDlv3GE1ao5g64Kmucw2-68" edge="1">
          <mxGeometry relative="1" as="geometry">
            <Array as="points">
              <mxPoint x="240" y="540" />
              <mxPoint x="110" y="540" />
            </Array>
          </mxGeometry>
        </mxCell>
        <mxCell id="jDlv3GE1ao5g64Kmucw2-42" value="highlight = highlight - 1" style="rounded=0;whiteSpace=wrap;html=1;strokeWidth=2;fontFamily=JetBrains Mono;fontSize=10;" parent="1" vertex="1">
          <mxGeometry x="140" y="491.72" width="200" height="30" as="geometry" />
        </mxCell>
        <mxCell id="jDlv3GE1ao5g64Kmucw2-43" style="edgeStyle=orthogonalEdgeStyle;rounded=0;orthogonalLoop=1;jettySize=auto;html=1;exitX=1;exitY=0.5;exitDx=0;exitDy=0;entryX=0.5;entryY=0;entryDx=0;entryDy=0;fontFamily=JetBrains Mono;fontSize=10;" parent="1" source="jDlv3GE1ao5g64Kmucw2-38" target="jDlv3GE1ao5g64Kmucw2-42" edge="1">
          <mxGeometry relative="1" as="geometry" />
        </mxCell>
        <mxCell id="jDlv3GE1ao5g64Kmucw2-44" value="0" style="edgeLabel;html=1;align=center;verticalAlign=middle;resizable=0;points=[];fontFamily=JetBrains Mono;fontSize=10;" parent="jDlv3GE1ao5g64Kmucw2-43" vertex="1" connectable="0">
          <mxGeometry x="-0.6219" y="1" relative="1" as="geometry">
            <mxPoint x="-21" y="-12" as="offset" />
          </mxGeometry>
        </mxCell>
        <mxCell id="jDlv3GE1ao5g64Kmucw2-55" value="highlight = highlight + 1" style="rounded=0;whiteSpace=wrap;html=1;strokeWidth=2;fontFamily=JetBrains Mono;fontSize=10;" parent="1" vertex="1">
          <mxGeometry x="480" y="491.72" width="200" height="30" as="geometry" />
        </mxCell>
        <mxCell id="jDlv3GE1ao5g64Kmucw2-51" style="edgeStyle=orthogonalEdgeStyle;rounded=0;orthogonalLoop=1;jettySize=auto;html=1;exitX=1;exitY=0.5;exitDx=0;exitDy=0;entryX=0.5;entryY=0;entryDx=0;entryDy=0;fontFamily=JetBrains Mono;fontSize=10;" parent="1" source="jDlv3GE1ao5g64Kmucw2-53" target="jDlv3GE1ao5g64Kmucw2-55" edge="1">
          <mxGeometry relative="1" as="geometry" />
        </mxCell>
        <mxCell id="jDlv3GE1ao5g64Kmucw2-52" value="0" style="edgeLabel;html=1;align=center;verticalAlign=middle;resizable=0;points=[];fontFamily=JetBrains Mono;fontSize=10;" parent="jDlv3GE1ao5g64Kmucw2-51" vertex="1" connectable="0">
          <mxGeometry x="-0.6219" y="1" relative="1" as="geometry">
            <mxPoint x="-21" y="-13" as="offset" />
          </mxGeometry>
        </mxCell>
        <mxCell id="jDlv3GE1ao5g64Kmucw2-40" style="edgeStyle=orthogonalEdgeStyle;rounded=0;orthogonalLoop=1;jettySize=auto;html=1;exitX=0.5;exitY=1;exitDx=0;exitDy=0;entryX=0.5;entryY=0;entryDx=0;entryDy=0;fontFamily=JetBrains Mono;fontSize=10;" parent="1" source="jDlv3GE1ao5g64Kmucw2-38" target="jDlv3GE1ao5g64Kmucw2-39" edge="1">
          <mxGeometry relative="1" as="geometry" />
        </mxCell>
        <mxCell id="jDlv3GE1ao5g64Kmucw2-41" value="1" style="edgeLabel;html=1;align=center;verticalAlign=middle;resizable=0;points=[];fontFamily=JetBrains Mono;fontSize=10;" parent="jDlv3GE1ao5g64Kmucw2-40" vertex="1" connectable="0">
          <mxGeometry x="-0.4" relative="1" as="geometry">
            <mxPoint x="10" y="4" as="offset" />
          </mxGeometry>
        </mxCell>
        <mxCell id="jDlv3GE1ao5g64Kmucw2-38" value="highlight = 0" style="rhombus;whiteSpace=wrap;html=1;strokeWidth=2;fontFamily=JetBrains Mono;fontSize=10;" parent="1" vertex="1">
          <mxGeometry x="10" y="361.72" width="200" height="60" as="geometry" />
        </mxCell>
        <mxCell id="jDlv3GE1ao5g64Kmucw2-62" style="edgeStyle=orthogonalEdgeStyle;rounded=0;orthogonalLoop=1;jettySize=auto;html=1;exitX=0.5;exitY=1;exitDx=0;exitDy=0;entryX=0.5;entryY=0;entryDx=0;entryDy=0;fontFamily=JetBrains Mono;fontSize=10;" parent="1" source="jDlv3GE1ao5g64Kmucw2-39" target="jDlv3GE1ao5g64Kmucw2-68" edge="1">
          <mxGeometry relative="1" as="geometry">
            <mxPoint x="110" y="560" as="targetPoint" />
          </mxGeometry>
        </mxCell>
        <mxCell id="jDlv3GE1ao5g64Kmucw2-39" value="highlight = max_items - 1" style="rounded=0;whiteSpace=wrap;html=1;strokeWidth=2;fontFamily=JetBrains Mono;fontSize=10;" parent="1" vertex="1">
          <mxGeometry x="10" y="441.72" width="200" height="30" as="geometry" />
        </mxCell>
        <mxCell id="jDlv3GE1ao5g64Kmucw2-49" style="edgeStyle=orthogonalEdgeStyle;rounded=0;orthogonalLoop=1;jettySize=auto;html=1;exitX=0.5;exitY=1;exitDx=0;exitDy=0;entryX=0.5;entryY=0;entryDx=0;entryDy=0;fontFamily=JetBrains Mono;fontSize=10;" parent="1" source="jDlv3GE1ao5g64Kmucw2-53" target="jDlv3GE1ao5g64Kmucw2-54" edge="1">
          <mxGeometry relative="1" as="geometry" />
        </mxCell>
        <mxCell id="jDlv3GE1ao5g64Kmucw2-50" value="1" style="edgeLabel;html=1;align=center;verticalAlign=middle;resizable=0;points=[];fontFamily=JetBrains Mono;fontSize=10;" parent="jDlv3GE1ao5g64Kmucw2-49" vertex="1" connectable="0">
          <mxGeometry x="-0.4" relative="1" as="geometry">
            <mxPoint x="10" y="4" as="offset" />
          </mxGeometry>
        </mxCell>
        <mxCell id="jDlv3GE1ao5g64Kmucw2-53" value="highlight = max_items - 1" style="rhombus;whiteSpace=wrap;html=1;strokeWidth=2;fontFamily=JetBrains Mono;fontSize=10;" parent="1" vertex="1">
          <mxGeometry x="360" y="361.72" width="200" height="60" as="geometry" />
        </mxCell>
        <mxCell id="jDlv3GE1ao5g64Kmucw2-64" style="edgeStyle=orthogonalEdgeStyle;rounded=0;orthogonalLoop=1;jettySize=auto;html=1;exitX=0.5;exitY=1;exitDx=0;exitDy=0;entryX=0.5;entryY=0;entryDx=0;entryDy=0;fontFamily=JetBrains Mono;fontSize=10;" parent="1" source="jDlv3GE1ao5g64Kmucw2-54" target="jDlv3GE1ao5g64Kmucw2-68" edge="1">
          <mxGeometry relative="1" as="geometry">
            <mxPoint x="110" y="560" as="targetPoint" />
            <Array as="points">
              <mxPoint x="460" y="540" />
              <mxPoint x="110" y="540" />
            </Array>
          </mxGeometry>
        </mxCell>
        <mxCell id="jDlv3GE1ao5g64Kmucw2-54" value="highlight = 0" style="rounded=0;whiteSpace=wrap;html=1;strokeWidth=2;fontFamily=JetBrains Mono;fontSize=10;" parent="1" vertex="1">
          <mxGeometry x="360" y="441.72" width="200" height="30" as="geometry" />
        </mxCell>
        <mxCell id="jDlv3GE1ao5g64Kmucw2-74" style="edgeStyle=orthogonalEdgeStyle;rounded=0;orthogonalLoop=1;jettySize=auto;html=1;exitX=0.5;exitY=1;exitDx=0;exitDy=0;entryX=0.5;entryY=0;entryDx=0;entryDy=0;fontFamily=JetBrains Mono;fontSize=10;" parent="1" source="jDlv3GE1ao5g64Kmucw2-68" target="jDlv3GE1ao5g64Kmucw2-73" edge="1">
          <mxGeometry relative="1" as="geometry" />
        </mxCell>
        <mxCell id="jDlv3GE1ao5g64Kmucw2-68" value="choice &amp;gt;= 0" style="rhombus;whiteSpace=wrap;html=1;strokeWidth=2;fontFamily=JetBrains Mono;fontSize=10;" parent="1" vertex="1">
          <mxGeometry x="10" y="560" width="200" height="60" as="geometry" />
        </mxCell>
        <mxCell id="jDlv3GE1ao5g64Kmucw2-70" value="" style="edgeStyle=orthogonalEdgeStyle;rounded=0;orthogonalLoop=1;jettySize=auto;html=1;exitX=0.5;exitY=1;exitDx=0;exitDy=0;entryX=0.5;entryY=0;entryDx=0;entryDy=0;fontFamily=JetBrains Mono;fontSize=10;" parent="1" source="jDlv3GE1ao5g64Kmucw2-55" target="jDlv3GE1ao5g64Kmucw2-68" edge="1">
          <mxGeometry relative="1" as="geometry">
            <mxPoint x="110" y="560" as="targetPoint" />
            <mxPoint x="580" y="522" as="sourcePoint" />
            <Array as="points">
              <mxPoint x="580" y="540" />
              <mxPoint x="110" y="540" />
            </Array>
          </mxGeometry>
        </mxCell>
        <mxCell id="jDlv3GE1ao5g64Kmucw2-91" style="edgeStyle=orthogonalEdgeStyle;rounded=0;orthogonalLoop=1;jettySize=auto;html=1;exitX=0.5;exitY=1;exitDx=0;exitDy=0;entryX=0.5;entryY=0;entryDx=0;entryDy=0;fontFamily=JetBrains Mono;fontSize=10;" parent="1" source="jDlv3GE1ao5g64Kmucw2-73" target="s0nGAhoIwVFG6jky1lM2-62" edge="1">
          <mxGeometry relative="1" as="geometry">
            <mxPoint x="411" y="740" as="targetPoint" />
            <Array as="points">
              <mxPoint x="110" y="720" />
              <mxPoint x="411" y="720" />
            </Array>
          </mxGeometry>
        </mxCell>
        <mxCell id="jDlv3GE1ao5g64Kmucw2-93" value="1" style="edgeLabel;html=1;align=center;verticalAlign=middle;resizable=0;points=[];fontFamily=JetBrains Mono;fontSize=10;" parent="jDlv3GE1ao5g64Kmucw2-91" vertex="1" connectable="0">
          <mxGeometry x="0.9096" y="1" relative="1" as="geometry">
            <mxPoint x="14" y="5" as="offset" />
          </mxGeometry>
        </mxCell>
        <mxCell id="jDlv3GE1ao5g64Kmucw2-99" style="edgeStyle=orthogonalEdgeStyle;rounded=0;orthogonalLoop=1;jettySize=auto;html=1;exitX=0.5;exitY=1;exitDx=0;exitDy=0;entryX=0.5;entryY=0;entryDx=0;entryDy=0;fontFamily=JetBrains Mono;fontSize=10;" parent="1" source="jDlv3GE1ao5g64Kmucw2-73" target="jDlv3GE1ao5g64Kmucw2-98" edge="1">
          <mxGeometry relative="1" as="geometry">
            <Array as="points">
              <mxPoint x="110" y="720" />
              <mxPoint x="650" y="720" />
            </Array>
          </mxGeometry>
        </mxCell>
        <mxCell id="jDlv3GE1ao5g64Kmucw2-117" value="2" style="edgeLabel;html=1;align=center;verticalAlign=middle;resizable=0;points=[];fontFamily=JetBrains Mono;fontSize=10;" parent="jDlv3GE1ao5g64Kmucw2-99" vertex="1" connectable="0">
          <mxGeometry x="0.9481" relative="1" as="geometry">
            <mxPoint x="10" y="3" as="offset" />
          </mxGeometry>
        </mxCell>
        <mxCell id="s0nGAhoIwVFG6jky1lM2-20" style="edgeStyle=orthogonalEdgeStyle;rounded=0;orthogonalLoop=1;jettySize=auto;html=1;exitX=0.5;exitY=1;exitDx=0;exitDy=0;entryX=0.5;entryY=0;entryDx=0;entryDy=0;fontFamily=JetBrains Mono;fontSize=10;" parent="1" source="jDlv3GE1ao5g64Kmucw2-73" target="s0nGAhoIwVFG6jky1lM2-19" edge="1">
          <mxGeometry relative="1" as="geometry">
            <Array as="points">
              <mxPoint x="110" y="720" />
              <mxPoint x="800" y="720" />
            </Array>
          </mxGeometry>
        </mxCell>
        <mxCell id="s0nGAhoIwVFG6jky1lM2-34" style="edgeStyle=orthogonalEdgeStyle;rounded=0;orthogonalLoop=1;jettySize=auto;html=1;exitX=0.5;exitY=1;exitDx=0;exitDy=0;entryX=0.5;entryY=0;entryDx=0;entryDy=0;fontFamily=JetBrains Mono;fontSize=10;" parent="1" source="jDlv3GE1ao5g64Kmucw2-73" target="s0nGAhoIwVFG6jky1lM2-28" edge="1">
          <mxGeometry relative="1" as="geometry" />
        </mxCell>
        <mxCell id="s0nGAhoIwVFG6jky1lM2-35" value="0" style="edgeLabel;html=1;align=center;verticalAlign=middle;resizable=0;points=[];fontFamily=JetBrains Mono;fontSize=10;" parent="s0nGAhoIwVFG6jky1lM2-34" vertex="1" connectable="0">
          <mxGeometry x="0.5647" y="1" relative="1" as="geometry">
            <mxPoint x="14" y="-1" as="offset" />
          </mxGeometry>
        </mxCell>
        <mxCell id="jDlv3GE1ao5g64Kmucw2-73" value="choice" style="rhombus;whiteSpace=wrap;html=1;strokeWidth=2;fontFamily=JetBrains Mono;fontSize=10;" parent="1" vertex="1">
          <mxGeometry x="10" y="640" width="200" height="60" as="geometry" />
        </mxCell>
        <mxCell id="s0nGAhoIwVFG6jky1lM2-75" style="edgeStyle=orthogonalEdgeStyle;rounded=0;orthogonalLoop=1;jettySize=auto;html=1;exitX=0.5;exitY=1;exitDx=0;exitDy=0;fontFamily=JetBrains Mono;fontSize=10;" parent="1" source="jDlv3GE1ao5g64Kmucw2-79" edge="1">
          <mxGeometry relative="1" as="geometry">
            <mxPoint x="410" y="1110" as="targetPoint" />
          </mxGeometry>
        </mxCell>
        <mxCell id="jDlv3GE1ao5g64Kmucw2-79" value="limits = 1" style="rounded=0;whiteSpace=wrap;html=1;strokeWidth=2;fontFamily=JetBrains Mono;fontSize=10;" parent="1" vertex="1">
          <mxGeometry x="10" y="1100" width="200" height="30" as="geometry" />
        </mxCell>
        <mxCell id="s0nGAhoIwVFG6jky1lM2-54" style="edgeStyle=orthogonalEdgeStyle;rounded=0;orthogonalLoop=1;jettySize=auto;html=1;exitX=0.5;exitY=1;exitDx=0;exitDy=0;entryX=0.5;entryY=0;entryDx=0;entryDy=0;fontFamily=JetBrains Mono;fontSize=10;" parent="1" source="jDlv3GE1ao5g64Kmucw2-84" target="jDlv3GE1ao5g64Kmucw2-109" edge="1">
          <mxGeometry relative="1" as="geometry" />
        </mxCell>
        <mxCell id="jDlv3GE1ao5g64Kmucw2-84" value="rect = 1" style="rounded=0;whiteSpace=wrap;html=1;strokeWidth=2;fontFamily=JetBrains Mono;fontSize=10;" parent="1" vertex="1">
          <mxGeometry x="309" y="1060" width="202" height="30" as="geometry" />
        </mxCell>
        <mxCell id="s0nGAhoIwVFG6jky1lM2-59" style="edgeStyle=orthogonalEdgeStyle;rounded=0;orthogonalLoop=1;jettySize=auto;html=1;exitX=1;exitY=0.5;exitDx=0;exitDy=0;fontFamily=JetBrains Mono;fontSize=10;" parent="1" source="jDlv3GE1ao5g64Kmucw2-85" edge="1">
          <mxGeometry relative="1" as="geometry">
            <mxPoint x="530" y="1110" as="targetPoint" />
            <Array as="points">
              <mxPoint x="530" y="1010" />
            </Array>
          </mxGeometry>
        </mxCell>
        <mxCell id="s0nGAhoIwVFG6jky1lM2-61" value="0" style="edgeLabel;html=1;align=center;verticalAlign=middle;resizable=0;points=[];fontFamily=JetBrains Mono;fontSize=10;" parent="s0nGAhoIwVFG6jky1lM2-59" vertex="1" connectable="0">
          <mxGeometry x="0.6893" relative="1" as="geometry">
            <mxPoint x="10" y="8" as="offset" />
          </mxGeometry>
        </mxCell>
        <mxCell id="s0nGAhoIwVFG6jky1lM2-76" style="edgeStyle=orthogonalEdgeStyle;rounded=0;orthogonalLoop=1;jettySize=auto;html=1;exitX=0.5;exitY=1;exitDx=0;exitDy=0;entryX=0.5;entryY=0;entryDx=0;entryDy=0;fontFamily=JetBrains Mono;fontSize=10;" parent="1" source="jDlv3GE1ao5g64Kmucw2-85" target="jDlv3GE1ao5g64Kmucw2-84" edge="1">
          <mxGeometry relative="1" as="geometry" />
        </mxCell>
        <mxCell id="jDlv3GE1ao5g64Kmucw2-85" value="n &amp;gt;= 0" style="rhombus;whiteSpace=wrap;html=1;strokeWidth=2;fontFamily=JetBrains Mono;fontSize=10;" parent="1" vertex="1">
          <mxGeometry x="309" y="980" width="202" height="60" as="geometry" />
        </mxCell>
        <mxCell id="s0nGAhoIwVFG6jky1lM2-82" style="edgeStyle=orthogonalEdgeStyle;rounded=0;orthogonalLoop=1;jettySize=auto;html=1;exitX=0.5;exitY=1;exitDx=0;exitDy=0;entryX=0.5;entryY=0;entryDx=0;entryDy=0;fontFamily=JetBrains Mono;fontSize=10;" parent="1" source="jDlv3GE1ao5g64Kmucw2-98" target="s0nGAhoIwVFG6jky1lM2-81" edge="1">
          <mxGeometry relative="1" as="geometry" />
        </mxCell>
        <mxCell id="s0nGAhoIwVFG6jky1lM2-88" value="0" style="edgeLabel;html=1;align=center;verticalAlign=middle;resizable=0;points=[];fontFamily=JetBrains Mono;fontSize=10;" parent="s0nGAhoIwVFG6jky1lM2-82" vertex="1" connectable="0">
          <mxGeometry x="-0.1483" y="2" relative="1" as="geometry">
            <mxPoint x="8" as="offset" />
          </mxGeometry>
        </mxCell>
        <mxCell id="s0nGAhoIwVFG6jky1lM2-84" style="edgeStyle=orthogonalEdgeStyle;rounded=0;orthogonalLoop=1;jettySize=auto;html=1;exitX=1;exitY=0.5;exitDx=0;exitDy=0;entryX=0.5;entryY=0;entryDx=0;entryDy=0;fontFamily=JetBrains Mono;fontSize=10;" parent="1" source="jDlv3GE1ao5g64Kmucw2-98" target="jDlv3GE1ao5g64Kmucw2-109" edge="1">
          <mxGeometry relative="1" as="geometry">
            <Array as="points">
              <mxPoint x="770" y="770" />
              <mxPoint x="770" y="1110" />
              <mxPoint x="410" y="1110" />
            </Array>
          </mxGeometry>
        </mxCell>
        <mxCell id="s0nGAhoIwVFG6jky1lM2-85" value="1" style="edgeLabel;html=1;align=center;verticalAlign=middle;resizable=0;points=[];fontFamily=JetBrains Mono;fontSize=10;" parent="s0nGAhoIwVFG6jky1lM2-84" vertex="1" connectable="0">
          <mxGeometry x="-0.9656" relative="1" as="geometry">
            <mxPoint x="-12" y="-10" as="offset" />
          </mxGeometry>
        </mxCell>
        <mxCell id="jDlv3GE1ao5g64Kmucw2-98" value="limits = 0" style="rhombus;whiteSpace=wrap;html=1;strokeWidth=2;fontFamily=JetBrains Mono;fontSize=10;" parent="1" vertex="1">
          <mxGeometry x="550" y="740" width="200" height="60" as="geometry" />
        </mxCell>
        <mxCell id="s0nGAhoIwVFG6jky1lM2-80" style="edgeStyle=orthogonalEdgeStyle;rounded=0;orthogonalLoop=1;jettySize=auto;html=1;exitX=0.5;exitY=1;exitDx=0;exitDy=0;fontFamily=JetBrains Mono;fontSize=10;" parent="1" source="jDlv3GE1ao5g64Kmucw2-100" edge="1">
          <mxGeometry relative="1" as="geometry">
            <mxPoint x="650" y="1110" as="targetPoint" />
          </mxGeometry>
        </mxCell>
        <mxCell id="jDlv3GE1ao5g64Kmucw2-100" value="Вывод area" style="shape=parallelogram;perimeter=parallelogramPerimeter;whiteSpace=wrap;html=1;fixedSize=1;size=30;container=0;strokeWidth=2;fontFamily=JetBrains Mono;fontSize=10;" parent="1" vertex="1">
          <mxGeometry x="550" y="1060" width="200" height="30" as="geometry" />
        </mxCell>
        <mxCell id="jDlv3GE1ao5g64Kmucw2-103" style="edgeStyle=orthogonalEdgeStyle;rounded=0;orthogonalLoop=1;jettySize=auto;html=1;exitX=0.5;exitY=1;exitDx=0;exitDy=0;entryX=0.5;entryY=0;entryDx=0;entryDy=0;fontFamily=JetBrains Mono;fontSize=10;" parent="1" source="jDlv3GE1ao5g64Kmucw2-101" target="jDlv3GE1ao5g64Kmucw2-100" edge="1">
          <mxGeometry relative="1" as="geometry" />
        </mxCell>
        <mxCell id="jDlv3GE1ao5g64Kmucw2-101" value="area = integrate(a, b, n)" style="shape=process;whiteSpace=wrap;html=1;backgroundOutline=1;strokeWidth=2;size=0.05;fontFamily=JetBrains Mono;fontSize=10;" parent="1" vertex="1">
          <mxGeometry x="550" y="1010" width="200" height="30" as="geometry" />
        </mxCell>
        <mxCell id="jDlv3GE1ao5g64Kmucw2-109" value="&lt;font style=&quot;font-size: 10px;&quot;&gt;A2&lt;/font&gt;" style="ellipse;whiteSpace=wrap;html=1;aspect=fixed;strokeWidth=2;fontFamily=JetBrains Mono;fontSize=10;" parent="1" vertex="1">
          <mxGeometry x="395" y="1130" width="30" height="30" as="geometry" />
        </mxCell>
        <mxCell id="jDlv3GE1ao5g64Kmucw2-115" value="&lt;font style=&quot;font-size: 10px;&quot;&gt;A2&lt;/font&gt;" style="ellipse;whiteSpace=wrap;html=1;aspect=fixed;strokeWidth=2;fontFamily=JetBrains Mono;fontSize=10;" parent="1" vertex="1">
          <mxGeometry x="225" y="139" width="30" height="30" as="geometry" />
        </mxCell>
        <mxCell id="jDlv3GE1ao5g64Kmucw2-127" style="edgeStyle=orthogonalEdgeStyle;rounded=0;orthogonalLoop=1;jettySize=auto;html=1;exitX=0.5;exitY=1;exitDx=0;exitDy=0;entryX=0.5;entryY=0;entryDx=0;entryDy=0;fontFamily=JetBrains Mono;fontSize=10;" parent="1" source="jDlv3GE1ao5g64Kmucw2-115" target="jDlv3GE1ao5g64Kmucw2-9" edge="1">
          <mxGeometry relative="1" as="geometry">
            <mxPoint x="315" y="210" as="sourcePoint" />
            <mxPoint x="110" y="250" as="targetPoint" />
            <Array as="points">
              <mxPoint x="240" y="190" />
              <mxPoint x="110" y="190" />
            </Array>
          </mxGeometry>
        </mxCell>
        <mxCell id="jDlv3GE1ao5g64Kmucw2-137" value="&lt;font style=&quot;font-size: 10px;&quot;&gt;A2&lt;/font&gt;" style="ellipse;whiteSpace=wrap;html=1;aspect=fixed;strokeWidth=2;fontFamily=JetBrains Mono;fontSize=10;" parent="1" vertex="1">
          <mxGeometry x="125" y="1840" width="30" height="30" as="geometry" />
        </mxCell>
        <mxCell id="jDlv3GE1ao5g64Kmucw2-140" style="edgeStyle=orthogonalEdgeStyle;rounded=0;orthogonalLoop=1;jettySize=auto;html=1;exitX=0.5;exitY=1;exitDx=0;exitDy=0;entryX=0.5;entryY=0;entryDx=0;entryDy=0;fontFamily=JetBrains Mono;fontSize=10;" parent="1" source="jDlv3GE1ao5g64Kmucw2-138" target="jDlv3GE1ao5g64Kmucw2-137" edge="1">
          <mxGeometry relative="1" as="geometry" />
        </mxCell>
        <mxCell id="jDlv3GE1ao5g64Kmucw2-138" value="Вывод abs_error,&lt;div style=&quot;font-size: 10px;&quot;&gt;rel_error&lt;/div&gt;" style="shape=parallelogram;perimeter=parallelogramPerimeter;whiteSpace=wrap;html=1;fixedSize=1;size=30;container=0;strokeWidth=2;fontFamily=JetBrains Mono;fontSize=10;" parent="1" vertex="1">
          <mxGeometry x="40" y="1770" width="200" height="30" as="geometry" />
        </mxCell>
        <mxCell id="jDlv3GE1ao5g64Kmucw2-146" style="edgeStyle=orthogonalEdgeStyle;rounded=0;orthogonalLoop=1;jettySize=auto;html=1;exitX=0.5;exitY=1;exitDx=0;exitDy=0;entryX=0.5;entryY=1;entryDx=0;entryDy=0;fontFamily=JetBrains Mono;fontSize=10;" parent="1" source="jDlv3GE1ao5g64Kmucw2-144" target="jDlv3GE1ao5g64Kmucw2-3" edge="1">
          <mxGeometry relative="1" as="geometry" />
        </mxCell>
        <mxCell id="jDlv3GE1ao5g64Kmucw2-144" value="exit = 1" style="rounded=0;whiteSpace=wrap;html=1;strokeWidth=2;fontFamily=JetBrains Mono;fontSize=10;" parent="1" vertex="1">
          <mxGeometry x="390" y="1251.72" width="200" height="30" as="geometry" />
        </mxCell>
        <mxCell id="s0nGAhoIwVFG6jky1lM2-19" value="&lt;font style=&quot;font-size: 10px;&quot;&gt;A1&lt;/font&gt;" style="ellipse;whiteSpace=wrap;html=1;aspect=fixed;strokeWidth=2;fontFamily=JetBrains Mono;fontSize=10;" parent="1" vertex="1">
          <mxGeometry x="785" y="740" width="30" height="30" as="geometry" />
        </mxCell>
        <mxCell id="s0nGAhoIwVFG6jky1lM2-22" style="edgeStyle=orthogonalEdgeStyle;rounded=0;orthogonalLoop=1;jettySize=auto;html=1;exitX=0.5;exitY=1;exitDx=0;exitDy=0;entryX=0.5;entryY=0;entryDx=0;entryDy=0;fontFamily=JetBrains Mono;fontSize=10;" parent="1" source="s0nGAhoIwVFG6jky1lM2-21" target="s0nGAhoIwVFG6jky1lM2-94" edge="1">
          <mxGeometry relative="1" as="geometry">
            <mxPoint x="140" y="1250.0000000000002" as="targetPoint" />
          </mxGeometry>
        </mxCell>
        <mxCell id="s0nGAhoIwVFG6jky1lM2-24" value="3" style="edgeLabel;html=1;align=center;verticalAlign=middle;resizable=0;points=[];fontFamily=JetBrains Mono;fontSize=10;" parent="s0nGAhoIwVFG6jky1lM2-22" vertex="1" connectable="0">
          <mxGeometry x="0.42" y="1" relative="1" as="geometry">
            <mxPoint x="9" y="2" as="offset" />
          </mxGeometry>
        </mxCell>
        <mxCell id="s0nGAhoIwVFG6jky1lM2-23" style="edgeStyle=orthogonalEdgeStyle;rounded=0;orthogonalLoop=1;jettySize=auto;html=1;exitX=0.5;exitY=1;exitDx=0;exitDy=0;entryX=0.5;entryY=0;entryDx=0;entryDy=0;fontFamily=JetBrains Mono;fontSize=10;" parent="1" source="s0nGAhoIwVFG6jky1lM2-21" target="jDlv3GE1ao5g64Kmucw2-144" edge="1">
          <mxGeometry relative="1" as="geometry">
            <Array as="points">
              <mxPoint x="140" y="1230" />
              <mxPoint x="490" y="1230" />
            </Array>
          </mxGeometry>
        </mxCell>
        <mxCell id="s0nGAhoIwVFG6jky1lM2-25" value="4" style="edgeLabel;html=1;align=center;verticalAlign=middle;resizable=0;points=[];fontFamily=JetBrains Mono;fontSize=10;" parent="s0nGAhoIwVFG6jky1lM2-23" vertex="1" connectable="0">
          <mxGeometry x="0.9433" y="1" relative="1" as="geometry">
            <mxPoint x="9" as="offset" />
          </mxGeometry>
        </mxCell>
        <mxCell id="s0nGAhoIwVFG6jky1lM2-21" value="&lt;font style=&quot;font-size: 10px;&quot;&gt;A1&lt;/font&gt;" style="ellipse;whiteSpace=wrap;html=1;aspect=fixed;strokeWidth=2;fontFamily=JetBrains Mono;fontSize=10;" parent="1" vertex="1">
          <mxGeometry x="125" y="1180" width="30" height="30" as="geometry" />
        </mxCell>
        <mxCell id="s0nGAhoIwVFG6jky1lM2-39" style="edgeStyle=orthogonalEdgeStyle;rounded=0;orthogonalLoop=1;jettySize=auto;html=1;exitX=0.5;exitY=1;exitDx=0;exitDy=0;entryX=0.5;entryY=0;entryDx=0;entryDy=0;fontFamily=JetBrains Mono;fontSize=10;" parent="1" source="s0nGAhoIwVFG6jky1lM2-28" target="s0nGAhoIwVFG6jky1lM2-38" edge="1">
          <mxGeometry relative="1" as="geometry" />
        </mxCell>
        <mxCell id="s0nGAhoIwVFG6jky1lM2-28" value="Ввод a, b" style="shape=parallelogram;perimeter=parallelogramPerimeter;whiteSpace=wrap;html=1;fixedSize=1;size=30;container=0;strokeWidth=2;fontFamily=JetBrains Mono;fontSize=10;" parent="1" vertex="1">
          <mxGeometry x="10" y="740" width="200" height="30" as="geometry" />
        </mxCell>
        <mxCell id="s0nGAhoIwVFG6jky1lM2-31" value="a, b - верхний и нижний&lt;div style=&quot;font-size: 10px;&quot;&gt;пределы интегрирования&lt;/div&gt;" style="strokeWidth=2;html=1;shape=mxgraph.flowchart.annotation_1;align=left;pointerEvents=1;fontFamily=JetBrains Mono;fontSize=10;rotation=0;" parent="1" vertex="1">
          <mxGeometry x="227" y="773" width="10" height="30" as="geometry" />
        </mxCell>
        <mxCell id="s0nGAhoIwVFG6jky1lM2-45" style="edgeStyle=orthogonalEdgeStyle;rounded=0;orthogonalLoop=1;jettySize=auto;html=1;exitX=0.5;exitY=1;exitDx=0;exitDy=0;entryX=0.5;entryY=0;entryDx=0;entryDy=0;fontFamily=JetBrains Mono;fontSize=10;" parent="1" source="s0nGAhoIwVFG6jky1lM2-38" target="s0nGAhoIwVFG6jky1lM2-44" edge="1">
          <mxGeometry relative="1" as="geometry" />
        </mxCell>
        <mxCell id="s0nGAhoIwVFG6jky1lM2-38" value="x = find()" style="shape=process;whiteSpace=wrap;html=1;backgroundOutline=1;strokeWidth=2;size=0.05;fontFamily=JetBrains Mono;fontSize=10;" parent="1" vertex="1">
          <mxGeometry x="10" y="790" width="200" height="30" as="geometry" />
        </mxCell>
        <mxCell id="s0nGAhoIwVFG6jky1lM2-43" style="rounded=0;orthogonalLoop=1;jettySize=auto;html=1;exitX=1;exitY=0.5;exitDx=0;exitDy=0;entryX=0;entryY=0.5;entryDx=0;entryDy=0;entryPerimeter=0;dashed=1;endArrow=none;endFill=0;fontFamily=JetBrains Mono;fontSize=10;" parent="1" source="s0nGAhoIwVFG6jky1lM2-28" target="s0nGAhoIwVFG6jky1lM2-31" edge="1">
          <mxGeometry relative="1" as="geometry" />
        </mxCell>
        <mxCell id="s0nGAhoIwVFG6jky1lM2-47" style="edgeStyle=orthogonalEdgeStyle;rounded=0;orthogonalLoop=1;jettySize=auto;html=1;exitX=0.5;exitY=1;exitDx=0;exitDy=0;entryX=0.5;entryY=0;entryDx=0;entryDy=0;fontFamily=JetBrains Mono;fontSize=10;" parent="1" source="s0nGAhoIwVFG6jky1lM2-44" target="s0nGAhoIwVFG6jky1lM2-46" edge="1">
          <mxGeometry relative="1" as="geometry" />
        </mxCell>
        <mxCell id="s0nGAhoIwVFG6jky1lM2-48" value="1" style="edgeLabel;html=1;align=center;verticalAlign=middle;resizable=0;points=[];fontFamily=JetBrains Mono;fontSize=10;" parent="s0nGAhoIwVFG6jky1lM2-47" vertex="1" connectable="0">
          <mxGeometry x="-0.32" y="-1" relative="1" as="geometry">
            <mxPoint x="11" y="3" as="offset" />
          </mxGeometry>
        </mxCell>
        <mxCell id="s0nGAhoIwVFG6jky1lM2-78" style="edgeStyle=orthogonalEdgeStyle;rounded=0;orthogonalLoop=1;jettySize=auto;html=1;exitX=1;exitY=0.5;exitDx=0;exitDy=0;fontFamily=JetBrains Mono;fontSize=10;" parent="1" source="s0nGAhoIwVFG6jky1lM2-44" edge="1">
          <mxGeometry relative="1" as="geometry">
            <mxPoint x="230" y="1150" as="targetPoint" />
          </mxGeometry>
        </mxCell>
        <mxCell id="s0nGAhoIwVFG6jky1lM2-44" value="a &amp;lt; x" style="rhombus;whiteSpace=wrap;html=1;strokeWidth=2;fontFamily=JetBrains Mono;fontSize=10;" parent="1" vertex="1">
          <mxGeometry x="10" y="840" width="200" height="60" as="geometry" />
        </mxCell>
        <mxCell id="s0nGAhoIwVFG6jky1lM2-53" style="edgeStyle=orthogonalEdgeStyle;rounded=0;orthogonalLoop=1;jettySize=auto;html=1;exitX=0.5;exitY=1;exitDx=0;exitDy=0;entryX=0.5;entryY=0;entryDx=0;entryDy=0;fontFamily=JetBrains Mono;fontSize=10;" parent="1" source="s0nGAhoIwVFG6jky1lM2-46" target="s0nGAhoIwVFG6jky1lM2-51" edge="1">
          <mxGeometry relative="1" as="geometry" />
        </mxCell>
        <mxCell id="s0nGAhoIwVFG6jky1lM2-46" value="a = x" style="rounded=0;whiteSpace=wrap;html=1;strokeWidth=2;fontFamily=JetBrains Mono;fontSize=10;" parent="1" vertex="1">
          <mxGeometry x="10" y="920" width="200" height="30" as="geometry" />
        </mxCell>
        <mxCell id="s0nGAhoIwVFG6jky1lM2-49" style="edgeStyle=orthogonalEdgeStyle;rounded=0;orthogonalLoop=1;jettySize=auto;html=1;exitX=0.5;exitY=1;exitDx=0;exitDy=0;entryX=0.5;entryY=0;entryDx=0;entryDy=0;fontFamily=JetBrains Mono;fontSize=10;" parent="1" source="s0nGAhoIwVFG6jky1lM2-51" target="s0nGAhoIwVFG6jky1lM2-52" edge="1">
          <mxGeometry relative="1" as="geometry" />
        </mxCell>
        <mxCell id="s0nGAhoIwVFG6jky1lM2-50" value="1" style="edgeLabel;html=1;align=center;verticalAlign=middle;resizable=0;points=[];fontFamily=JetBrains Mono;fontSize=10;" parent="s0nGAhoIwVFG6jky1lM2-49" vertex="1" connectable="0">
          <mxGeometry x="-0.32" y="-1" relative="1" as="geometry">
            <mxPoint x="11" y="3" as="offset" />
          </mxGeometry>
        </mxCell>
        <mxCell id="s0nGAhoIwVFG6jky1lM2-79" style="edgeStyle=orthogonalEdgeStyle;rounded=0;orthogonalLoop=1;jettySize=auto;html=1;exitX=1;exitY=0.5;exitDx=0;exitDy=0;fontFamily=JetBrains Mono;fontSize=10;" parent="1" source="s0nGAhoIwVFG6jky1lM2-51" edge="1">
          <mxGeometry relative="1" as="geometry">
            <mxPoint x="230" y="1000" as="targetPoint" />
          </mxGeometry>
        </mxCell>
        <mxCell id="s0nGAhoIwVFG6jky1lM2-51" value="b &amp;lt; x" style="rhombus;whiteSpace=wrap;html=1;strokeWidth=2;fontFamily=JetBrains Mono;fontSize=10;" parent="1" vertex="1">
          <mxGeometry x="10" y="970" width="200" height="60" as="geometry" />
        </mxCell>
        <mxCell id="s0nGAhoIwVFG6jky1lM2-57" style="edgeStyle=orthogonalEdgeStyle;rounded=0;orthogonalLoop=1;jettySize=auto;html=1;exitX=0.5;exitY=1;exitDx=0;exitDy=0;entryX=0.5;entryY=0;entryDx=0;entryDy=0;fontFamily=JetBrains Mono;fontSize=10;" parent="1" source="s0nGAhoIwVFG6jky1lM2-52" target="jDlv3GE1ao5g64Kmucw2-79" edge="1">
          <mxGeometry relative="1" as="geometry" />
        </mxCell>
        <mxCell id="s0nGAhoIwVFG6jky1lM2-52" value="b = x" style="rounded=0;whiteSpace=wrap;html=1;strokeWidth=2;fontFamily=JetBrains Mono;fontSize=10;" parent="1" vertex="1">
          <mxGeometry x="10" y="1050" width="200" height="30" as="geometry" />
        </mxCell>
        <mxCell id="s0nGAhoIwVFG6jky1lM2-65" style="edgeStyle=orthogonalEdgeStyle;rounded=0;orthogonalLoop=1;jettySize=auto;html=1;exitX=0.5;exitY=1;exitDx=0;exitDy=0;entryX=0.5;entryY=0;entryDx=0;entryDy=0;fontFamily=JetBrains Mono;fontSize=10;" parent="1" source="s0nGAhoIwVFG6jky1lM2-62" target="s0nGAhoIwVFG6jky1lM2-64" edge="1">
          <mxGeometry relative="1" as="geometry" />
        </mxCell>
        <mxCell id="s0nGAhoIwVFG6jky1lM2-62" value="Ввод n" style="shape=parallelogram;perimeter=parallelogramPerimeter;whiteSpace=wrap;html=1;fixedSize=1;size=30;container=0;strokeWidth=2;fontFamily=JetBrains Mono;fontSize=10;" parent="1" vertex="1">
          <mxGeometry x="311" y="740" width="200" height="30" as="geometry" />
        </mxCell>
        <mxCell id="s0nGAhoIwVFG6jky1lM2-69" style="edgeStyle=orthogonalEdgeStyle;rounded=0;orthogonalLoop=1;jettySize=auto;html=1;exitX=1;exitY=0.5;exitDx=0;exitDy=0;entryX=0.5;entryY=0;entryDx=0;entryDy=0;fontFamily=JetBrains Mono;fontSize=10;" parent="1" source="s0nGAhoIwVFG6jky1lM2-64" target="s0nGAhoIwVFG6jky1lM2-66" edge="1">
          <mxGeometry relative="1" as="geometry" />
        </mxCell>
        <mxCell id="s0nGAhoIwVFG6jky1lM2-70" value="1" style="edgeLabel;html=1;align=center;verticalAlign=middle;resizable=0;points=[];fontFamily=JetBrains Mono;fontSize=10;" parent="s0nGAhoIwVFG6jky1lM2-69" vertex="1" connectable="0">
          <mxGeometry x="-0.8538" y="-1" relative="1" as="geometry">
            <mxPoint x="-7" y="-11" as="offset" />
          </mxGeometry>
        </mxCell>
        <mxCell id="s0nGAhoIwVFG6jky1lM2-74" style="edgeStyle=orthogonalEdgeStyle;rounded=0;orthogonalLoop=1;jettySize=auto;html=1;exitX=0.5;exitY=1;exitDx=0;exitDy=0;entryX=0.5;entryY=0;entryDx=0;entryDy=0;fontFamily=JetBrains Mono;fontSize=10;" parent="1" source="s0nGAhoIwVFG6jky1lM2-64" target="jDlv3GE1ao5g64Kmucw2-85" edge="1">
          <mxGeometry relative="1" as="geometry">
            <Array as="points">
              <mxPoint x="410" y="980" />
            </Array>
          </mxGeometry>
        </mxCell>
        <mxCell id="s0nGAhoIwVFG6jky1lM2-77" value="0" style="edgeLabel;html=1;align=center;verticalAlign=middle;resizable=0;points=[];fontFamily=JetBrains Mono;fontSize=10;" parent="s0nGAhoIwVFG6jky1lM2-74" vertex="1" connectable="0">
          <mxGeometry x="-0.7866" relative="1" as="geometry">
            <mxPoint x="10" y="-4" as="offset" />
          </mxGeometry>
        </mxCell>
        <mxCell id="s0nGAhoIwVFG6jky1lM2-64" value="n &amp;lt;= 0" style="rhombus;whiteSpace=wrap;html=1;strokeWidth=2;fontFamily=JetBrains Mono;fontSize=10;" parent="1" vertex="1">
          <mxGeometry x="310" y="790" width="200" height="60" as="geometry" />
        </mxCell>
        <mxCell id="s0nGAhoIwVFG6jky1lM2-72" style="edgeStyle=orthogonalEdgeStyle;rounded=0;orthogonalLoop=1;jettySize=auto;html=1;exitX=0.5;exitY=1;exitDx=0;exitDy=0;fontFamily=JetBrains Mono;fontSize=10;" parent="1" source="s0nGAhoIwVFG6jky1lM2-66" edge="1">
          <mxGeometry relative="1" as="geometry">
            <mxPoint x="530" y="1010" as="targetPoint" />
          </mxGeometry>
        </mxCell>
        <mxCell id="s0nGAhoIwVFG6jky1lM2-66" value="n = 0" style="rounded=0;whiteSpace=wrap;html=1;strokeWidth=2;fontFamily=JetBrains Mono;fontSize=10;" parent="1" vertex="1">
          <mxGeometry x="430" y="920" width="200" height="30" as="geometry" />
        </mxCell>
        <mxCell id="s0nGAhoIwVFG6jky1lM2-86" style="edgeStyle=orthogonalEdgeStyle;rounded=0;orthogonalLoop=1;jettySize=auto;html=1;exitX=1;exitY=0.5;exitDx=0;exitDy=0;fontFamily=JetBrains Mono;fontSize=10;" parent="1" source="s0nGAhoIwVFG6jky1lM2-81" edge="1">
          <mxGeometry relative="1" as="geometry">
            <mxPoint x="770" y="850" as="targetPoint" />
          </mxGeometry>
        </mxCell>
        <mxCell id="s0nGAhoIwVFG6jky1lM2-87" value="1" style="edgeLabel;html=1;align=center;verticalAlign=middle;resizable=0;points=[];fontFamily=JetBrains Mono;fontSize=10;" parent="s0nGAhoIwVFG6jky1lM2-86" vertex="1" connectable="0">
          <mxGeometry x="-0.4206" y="1" relative="1" as="geometry">
            <mxPoint x="-6" y="-9" as="offset" />
          </mxGeometry>
        </mxCell>
        <mxCell id="s0nGAhoIwVFG6jky1lM2-89" style="edgeStyle=orthogonalEdgeStyle;rounded=0;orthogonalLoop=1;jettySize=auto;html=1;exitX=0.5;exitY=1;exitDx=0;exitDy=0;entryX=0.5;entryY=0;entryDx=0;entryDy=0;fontFamily=JetBrains Mono;fontSize=10;" parent="1" source="s0nGAhoIwVFG6jky1lM2-81" target="jDlv3GE1ao5g64Kmucw2-101" edge="1">
          <mxGeometry relative="1" as="geometry" />
        </mxCell>
        <mxCell id="s0nGAhoIwVFG6jky1lM2-90" value="0" style="edgeLabel;html=1;align=center;verticalAlign=middle;resizable=0;points=[];fontFamily=JetBrains Mono;fontSize=10;" parent="s0nGAhoIwVFG6jky1lM2-89" vertex="1" connectable="0">
          <mxGeometry x="-0.8584" relative="1" as="geometry">
            <mxPoint x="10" as="offset" />
          </mxGeometry>
        </mxCell>
        <mxCell id="s0nGAhoIwVFG6jky1lM2-81" value="rect = 0" style="rhombus;whiteSpace=wrap;html=1;strokeWidth=2;fontFamily=JetBrains Mono;fontSize=10;" parent="1" vertex="1">
          <mxGeometry x="550" y="820" width="200" height="60" as="geometry" />
        </mxCell>
        <mxCell id="s0nGAhoIwVFG6jky1lM2-91" style="edgeStyle=orthogonalEdgeStyle;rounded=0;orthogonalLoop=1;jettySize=auto;html=1;exitX=0.5;exitY=1;exitDx=0;exitDy=0;entryX=0.5;entryY=0;entryDx=0;entryDy=0;fontFamily=JetBrains Mono;fontSize=10;" parent="1" source="s0nGAhoIwVFG6jky1lM2-94" target="s0nGAhoIwVFG6jky1lM2-98" edge="1">
          <mxGeometry relative="1" as="geometry" />
        </mxCell>
        <mxCell id="s0nGAhoIwVFG6jky1lM2-92" value="0" style="edgeLabel;html=1;align=center;verticalAlign=middle;resizable=0;points=[];fontFamily=JetBrains Mono;fontSize=10;" parent="s0nGAhoIwVFG6jky1lM2-91" vertex="1" connectable="0">
          <mxGeometry x="-0.1483" y="2" relative="1" as="geometry">
            <mxPoint x="8" as="offset" />
          </mxGeometry>
        </mxCell>
        <mxCell id="8EtT9NqUn1y6O-FZpWFD-1" style="edgeStyle=orthogonalEdgeStyle;rounded=0;orthogonalLoop=1;jettySize=auto;html=1;exitX=1;exitY=0.5;exitDx=0;exitDy=0;entryX=0.5;entryY=0;entryDx=0;entryDy=0;" edge="1" parent="1" source="s0nGAhoIwVFG6jky1lM2-94" target="jDlv3GE1ao5g64Kmucw2-137">
          <mxGeometry relative="1" as="geometry">
            <Array as="points">
              <mxPoint x="370" y="1280" />
              <mxPoint x="370" y="1820" />
              <mxPoint x="140" y="1820" />
            </Array>
          </mxGeometry>
        </mxCell>
        <mxCell id="8EtT9NqUn1y6O-FZpWFD-3" value="1" style="edgeLabel;html=1;align=center;verticalAlign=middle;resizable=0;points=[];" vertex="1" connectable="0" parent="8EtT9NqUn1y6O-FZpWFD-1">
          <mxGeometry x="-0.9609" y="-1" relative="1" as="geometry">
            <mxPoint x="-13" y="-11" as="offset" />
          </mxGeometry>
        </mxCell>
        <mxCell id="s0nGAhoIwVFG6jky1lM2-94" value="limits = 0" style="rhombus;whiteSpace=wrap;html=1;strokeWidth=2;fontFamily=JetBrains Mono;fontSize=10;" parent="1" vertex="1">
          <mxGeometry x="40" y="1250" width="200" height="60" as="geometry" />
        </mxCell>
        <mxCell id="s0nGAhoIwVFG6jky1lM2-101" style="edgeStyle=orthogonalEdgeStyle;rounded=0;orthogonalLoop=1;jettySize=auto;html=1;exitX=0.5;exitY=1;exitDx=0;exitDy=0;entryX=0.5;entryY=0;entryDx=0;entryDy=0;fontFamily=JetBrains Mono;fontSize=10;" parent="1" source="s0nGAhoIwVFG6jky1lM2-98" target="s0nGAhoIwVFG6jky1lM2-100" edge="1">
          <mxGeometry relative="1" as="geometry" />
        </mxCell>
        <mxCell id="8EtT9NqUn1y6O-FZpWFD-2" style="edgeStyle=orthogonalEdgeStyle;rounded=0;orthogonalLoop=1;jettySize=auto;html=1;exitX=1;exitY=0.5;exitDx=0;exitDy=0;" edge="1" parent="1" source="s0nGAhoIwVFG6jky1lM2-98">
          <mxGeometry relative="1" as="geometry">
            <mxPoint x="370" y="1360" as="targetPoint" />
          </mxGeometry>
        </mxCell>
        <mxCell id="s0nGAhoIwVFG6jky1lM2-98" value="rect = 0" style="rhombus;whiteSpace=wrap;html=1;strokeWidth=2;fontFamily=JetBrains Mono;fontSize=10;" parent="1" vertex="1">
          <mxGeometry x="40" y="1330" width="200" height="60" as="geometry" />
        </mxCell>
        <mxCell id="s0nGAhoIwVFG6jky1lM2-106" style="edgeStyle=orthogonalEdgeStyle;rounded=0;orthogonalLoop=1;jettySize=auto;html=1;exitX=0.5;exitY=1;exitDx=0;exitDy=0;entryX=0.5;entryY=0;entryDx=0;entryDy=0;fontFamily=JetBrains Mono;fontSize=10;" parent="1" source="s0nGAhoIwVFG6jky1lM2-100" target="s0nGAhoIwVFG6jky1lM2-105" edge="1">
          <mxGeometry relative="1" as="geometry" />
        </mxCell>
        <mxCell id="s0nGAhoIwVFG6jky1lM2-100" value="numerical = integrate(a,b,n)" style="shape=process;whiteSpace=wrap;html=1;backgroundOutline=1;strokeWidth=2;size=0.05;fontFamily=JetBrains Mono;fontSize=10;" parent="1" vertex="1">
          <mxGeometry x="40" y="1410" width="200" height="30" as="geometry" />
        </mxCell>
        <mxCell id="s0nGAhoIwVFG6jky1lM2-110" style="edgeStyle=orthogonalEdgeStyle;rounded=0;orthogonalLoop=1;jettySize=auto;html=1;exitX=0.5;exitY=1;exitDx=0;exitDy=0;entryX=0.5;entryY=0;entryDx=0;entryDy=0;fontFamily=JetBrains Mono;fontSize=10;" parent="1" source="s0nGAhoIwVFG6jky1lM2-105" target="s0nGAhoIwVFG6jky1lM2-109" edge="1">
          <mxGeometry relative="1" as="geometry" />
        </mxCell>
        <mxCell id="s0nGAhoIwVFG6jky1lM2-105" value="exact = |antidirivative(b)-antidirivative(a)|" style="shape=process;whiteSpace=wrap;html=1;backgroundOutline=1;strokeWidth=2;size=0.05;fontFamily=JetBrains Mono;fontSize=10;" parent="1" vertex="1">
          <mxGeometry x="40" y="1460" width="200" height="40" as="geometry" />
        </mxCell>
        <mxCell id="s0nGAhoIwVFG6jky1lM2-112" style="edgeStyle=orthogonalEdgeStyle;rounded=0;orthogonalLoop=1;jettySize=auto;html=1;exitX=0.5;exitY=1;exitDx=0;exitDy=0;entryX=0.5;entryY=0;entryDx=0;entryDy=0;fontFamily=JetBrains Mono;fontSize=10;" parent="1" source="s0nGAhoIwVFG6jky1lM2-109" target="s0nGAhoIwVFG6jky1lM2-111" edge="1">
          <mxGeometry relative="1" as="geometry" />
        </mxCell>
        <mxCell id="s0nGAhoIwVFG6jky1lM2-109" value="abs_err = |exact - numerical|" style="rounded=0;whiteSpace=wrap;html=1;strokeWidth=2;fontFamily=JetBrains Mono;fontSize=10;" parent="1" vertex="1">
          <mxGeometry x="40" y="1520" width="200" height="30" as="geometry" />
        </mxCell>
        <mxCell id="s0nGAhoIwVFG6jky1lM2-115" style="edgeStyle=orthogonalEdgeStyle;rounded=0;orthogonalLoop=1;jettySize=auto;html=1;exitX=0.5;exitY=1;exitDx=0;exitDy=0;entryX=0.5;entryY=0;entryDx=0;entryDy=0;fontFamily=JetBrains Mono;fontSize=10;" parent="1" source="s0nGAhoIwVFG6jky1lM2-111" target="s0nGAhoIwVFG6jky1lM2-113" edge="1">
          <mxGeometry relative="1" as="geometry" />
        </mxCell>
        <mxCell id="s0nGAhoIwVFG6jky1lM2-117" value="0" style="edgeLabel;html=1;align=center;verticalAlign=middle;resizable=0;points=[];fontFamily=JetBrains Mono;fontSize=10;" parent="s0nGAhoIwVFG6jky1lM2-115" vertex="1" connectable="0">
          <mxGeometry x="0.1" y="-1" relative="1" as="geometry">
            <mxPoint x="11" as="offset" />
          </mxGeometry>
        </mxCell>
        <mxCell id="s0nGAhoIwVFG6jky1lM2-119" style="edgeStyle=orthogonalEdgeStyle;rounded=0;orthogonalLoop=1;jettySize=auto;html=1;exitX=1;exitY=0.5;exitDx=0;exitDy=0;entryX=0.5;entryY=0;entryDx=0;entryDy=0;fontFamily=JetBrains Mono;fontSize=10;" parent="1" source="s0nGAhoIwVFG6jky1lM2-111" target="s0nGAhoIwVFG6jky1lM2-118" edge="1">
          <mxGeometry relative="1" as="geometry" />
        </mxCell>
        <mxCell id="s0nGAhoIwVFG6jky1lM2-120" value="1" style="edgeLabel;html=1;align=center;verticalAlign=middle;resizable=0;points=[];fontFamily=JetBrains Mono;fontSize=10;" parent="s0nGAhoIwVFG6jky1lM2-119" vertex="1" connectable="0">
          <mxGeometry x="-0.7833" relative="1" as="geometry">
            <mxPoint x="-8" y="-10" as="offset" />
          </mxGeometry>
        </mxCell>
        <mxCell id="s0nGAhoIwVFG6jky1lM2-111" value="exact = 0" style="rhombus;whiteSpace=wrap;html=1;strokeWidth=2;fontFamily=JetBrains Mono;fontSize=10;" parent="1" vertex="1">
          <mxGeometry x="40" y="1570" width="200" height="60" as="geometry" />
        </mxCell>
        <mxCell id="s0nGAhoIwVFG6jky1lM2-122" style="edgeStyle=orthogonalEdgeStyle;rounded=0;orthogonalLoop=1;jettySize=auto;html=1;exitX=0.5;exitY=1;exitDx=0;exitDy=0;entryX=0.5;entryY=0;entryDx=0;entryDy=0;fontFamily=JetBrains Mono;fontSize=10;" parent="1" source="s0nGAhoIwVFG6jky1lM2-113" target="jDlv3GE1ao5g64Kmucw2-138" edge="1">
          <mxGeometry relative="1" as="geometry" />
        </mxCell>
        <mxCell id="s0nGAhoIwVFG6jky1lM2-113" value="rel_err = (abs_err / |exact|) * 100" style="rounded=0;whiteSpace=wrap;html=1;strokeWidth=2;fontFamily=JetBrains Mono;fontSize=10;" parent="1" vertex="1">
          <mxGeometry x="40" y="1650" width="200" height="30" as="geometry" />
        </mxCell>
        <mxCell id="s0nGAhoIwVFG6jky1lM2-121" style="edgeStyle=orthogonalEdgeStyle;rounded=0;orthogonalLoop=1;jettySize=auto;html=1;exitX=0.5;exitY=1;exitDx=0;exitDy=0;entryX=0.5;entryY=0;entryDx=0;entryDy=0;fontFamily=JetBrains Mono;fontSize=10;" parent="1" source="s0nGAhoIwVFG6jky1lM2-118" target="jDlv3GE1ao5g64Kmucw2-138" edge="1">
          <mxGeometry relative="1" as="geometry" />
        </mxCell>
        <mxCell id="s0nGAhoIwVFG6jky1lM2-118" value="rel_err = 0" style="rounded=0;whiteSpace=wrap;html=1;strokeWidth=2;fontFamily=JetBrains Mono;fontSize=10;" parent="1" vertex="1">
          <mxGeometry x="160" y="1700" width="200" height="30" as="geometry" />
        </mxCell>
        <mxCell id="s0nGAhoIwVFG6jky1lM2-126" style="edgeStyle=orthogonalEdgeStyle;rounded=0;orthogonalLoop=1;jettySize=auto;html=1;exitX=0.5;exitY=1;exitDx=0;exitDy=0;entryX=0.5;entryY=0;entryDx=0;entryDy=0;fontFamily=JetBrains Mono;fontSize=10;" parent="1" source="s0nGAhoIwVFG6jky1lM2-123" target="s0nGAhoIwVFG6jky1lM2-125" edge="1">
          <mxGeometry relative="1" as="geometry" />
        </mxCell>
        <mxCell id="s0nGAhoIwVFG6jky1lM2-123" value="Начало&lt;div style=&quot;font-size: 10px;&quot;&gt;find_x&lt;/div&gt;" style="rounded=1;whiteSpace=wrap;html=1;arcSize=50;container=0;strokeWidth=2;fontFamily=JetBrains Mono;fontSize=10;" parent="1" vertex="1">
          <mxGeometry x="1180" y="280" width="200" height="30" as="geometry" />
        </mxCell>
        <mxCell id="s0nGAhoIwVFG6jky1lM2-124" value="Конец&lt;div style=&quot;font-size: 10px;&quot;&gt;find_x&lt;/div&gt;" style="rounded=1;whiteSpace=wrap;html=1;arcSize=50;container=0;strokeWidth=2;fontFamily=JetBrains Mono;fontSize=10;" parent="1" vertex="1">
          <mxGeometry x="1180" y="900" width="200" height="30" as="geometry" />
        </mxCell>
        <mxCell id="s0nGAhoIwVFG6jky1lM2-136" style="edgeStyle=orthogonalEdgeStyle;rounded=0;orthogonalLoop=1;jettySize=auto;html=1;exitX=0.5;exitY=1;exitDx=0;exitDy=0;entryX=0.5;entryY=0;entryDx=0;entryDy=0;fontFamily=JetBrains Mono;fontSize=10;" parent="1" source="s0nGAhoIwVFG6jky1lM2-125" target="s0nGAhoIwVFG6jky1lM2-130" edge="1">
          <mxGeometry relative="1" as="geometry" />
        </mxCell>
        <mxCell id="s0nGAhoIwVFG6jky1lM2-125" value="left = -1, right = 0" style="rounded=0;whiteSpace=wrap;html=1;strokeWidth=2;fontFamily=JetBrains Mono;fontSize=10;" parent="1" vertex="1">
          <mxGeometry x="1180" y="330" width="200" height="30" as="geometry" />
        </mxCell>
        <mxCell id="s0nGAhoIwVFG6jky1lM2-127" value="left - левая граница,&lt;br style=&quot;font-size: 10px;&quot;&gt;right - правая" style="strokeWidth=2;html=1;shape=mxgraph.flowchart.annotation_1;align=left;pointerEvents=1;fontFamily=JetBrains Mono;fontSize=10;" parent="1" vertex="1">
          <mxGeometry x="1410" y="330" width="10" height="30" as="geometry" />
        </mxCell>
        <mxCell id="s0nGAhoIwVFG6jky1lM2-128" style="edgeStyle=orthogonalEdgeStyle;rounded=0;orthogonalLoop=1;jettySize=auto;html=1;exitX=1;exitY=0.5;exitDx=0;exitDy=0;entryX=0;entryY=0.5;entryDx=0;entryDy=0;entryPerimeter=0;dashed=1;endArrow=none;endFill=0;fontFamily=JetBrains Mono;fontSize=10;" parent="1" source="s0nGAhoIwVFG6jky1lM2-125" target="s0nGAhoIwVFG6jky1lM2-127" edge="1">
          <mxGeometry relative="1" as="geometry" />
        </mxCell>
        <mxCell id="s0nGAhoIwVFG6jky1lM2-160" style="edgeStyle=orthogonalEdgeStyle;rounded=0;orthogonalLoop=1;jettySize=auto;html=1;exitX=0.5;exitY=0;exitDx=0;exitDy=0;entryX=0.5;entryY=0;entryDx=0;entryDy=0;fontFamily=JetBrains Mono;fontSize=10;" parent="1" source="s0nGAhoIwVFG6jky1lM2-129" target="s0nGAhoIwVFG6jky1lM2-159" edge="1">
          <mxGeometry relative="1" as="geometry" />
        </mxCell>
        <mxCell id="s0nGAhoIwVFG6jky1lM2-129" value="&lt;div style=&quot;font-size: 10px;&quot;&gt;&lt;br style=&quot;font-size: 10px;&quot;&gt;&lt;/div&gt;&lt;div style=&quot;font-size: 10px;&quot;&gt;Гойда&lt;/div&gt;" style="shape=loopLimit;whiteSpace=wrap;html=1;size=20;direction=west;strokeWidth=2;fontFamily=JetBrains Mono;fontSize=10;" parent="1" vertex="1">
          <mxGeometry x="1180" y="790" width="200" height="41" as="geometry" />
        </mxCell>
        <mxCell id="s0nGAhoIwVFG6jky1lM2-132" style="edgeStyle=orthogonalEdgeStyle;rounded=0;orthogonalLoop=1;jettySize=auto;html=1;exitX=0.5;exitY=1;exitDx=0;exitDy=0;entryX=0.5;entryY=0;entryDx=0;entryDy=0;fontFamily=JetBrains Mono;fontSize=10;" parent="1" source="s0nGAhoIwVFG6jky1lM2-130" target="s0nGAhoIwVFG6jky1lM2-131" edge="1">
          <mxGeometry relative="1" as="geometry" />
        </mxCell>
        <mxCell id="s0nGAhoIwVFG6jky1lM2-130" value="&lt;div style=&quot;font-size: 10px;&quot;&gt;Гойда&lt;/div&gt;&lt;div style=&quot;font-size: 10px;&quot;&gt;right - left &amp;lt;= 10&lt;sup style=&quot;font-size: 10px;&quot;&gt;-10&lt;/sup&gt;&lt;/div&gt;" style="shape=loopLimit;whiteSpace=wrap;html=1;size=18;direction=east;strokeWidth=2;fontFamily=JetBrains Mono;fontSize=10;" parent="1" vertex="1">
          <mxGeometry x="1180" y="379" width="200" height="39" as="geometry" />
        </mxCell>
        <mxCell id="s0nGAhoIwVFG6jky1lM2-144" style="edgeStyle=orthogonalEdgeStyle;rounded=0;orthogonalLoop=1;jettySize=auto;html=1;exitX=0.5;exitY=1;exitDx=0;exitDy=0;entryX=0.5;entryY=0;entryDx=0;entryDy=0;fontFamily=JetBrains Mono;fontSize=10;" parent="1" source="s0nGAhoIwVFG6jky1lM2-131" target="s0nGAhoIwVFG6jky1lM2-139" edge="1">
          <mxGeometry relative="1" as="geometry" />
        </mxCell>
        <mxCell id="s0nGAhoIwVFG6jky1lM2-131" value="centre = (left + right)/2" style="rounded=0;whiteSpace=wrap;html=1;strokeWidth=2;fontFamily=JetBrains Mono;fontSize=10;" parent="1" vertex="1">
          <mxGeometry x="1180" y="440" width="200" height="30" as="geometry" />
        </mxCell>
        <mxCell id="s0nGAhoIwVFG6jky1lM2-150" style="edgeStyle=orthogonalEdgeStyle;rounded=0;orthogonalLoop=1;jettySize=auto;html=1;exitX=0.5;exitY=1;exitDx=0;exitDy=0;entryX=0.5;entryY=0;entryDx=0;entryDy=0;fontFamily=JetBrains Mono;fontSize=10;" parent="1" source="s0nGAhoIwVFG6jky1lM2-133" target="s0nGAhoIwVFG6jky1lM2-149" edge="1">
          <mxGeometry relative="1" as="geometry" />
        </mxCell>
        <mxCell id="s0nGAhoIwVFG6jky1lM2-154" value="1" style="edgeLabel;html=1;align=center;verticalAlign=middle;resizable=0;points=[];fontFamily=JetBrains Mono;fontSize=10;" parent="s0nGAhoIwVFG6jky1lM2-150" vertex="1" connectable="0">
          <mxGeometry x="-0.4667" relative="1" as="geometry">
            <mxPoint x="10" y="5" as="offset" />
          </mxGeometry>
        </mxCell>
        <mxCell id="s0nGAhoIwVFG6jky1lM2-152" style="edgeStyle=orthogonalEdgeStyle;rounded=0;orthogonalLoop=1;jettySize=auto;html=1;exitX=1;exitY=0.5;exitDx=0;exitDy=0;entryX=0.5;entryY=0;entryDx=0;entryDy=0;fontFamily=JetBrains Mono;fontSize=10;" parent="1" source="s0nGAhoIwVFG6jky1lM2-133" target="s0nGAhoIwVFG6jky1lM2-151" edge="1">
          <mxGeometry relative="1" as="geometry" />
        </mxCell>
        <mxCell id="s0nGAhoIwVFG6jky1lM2-153" value="0" style="edgeLabel;html=1;align=center;verticalAlign=middle;resizable=0;points=[];fontFamily=JetBrains Mono;fontSize=10;" parent="s0nGAhoIwVFG6jky1lM2-152" vertex="1" connectable="0">
          <mxGeometry x="-0.7783" y="-1" relative="1" as="geometry">
            <mxPoint x="-13" y="-11" as="offset" />
          </mxGeometry>
        </mxCell>
        <mxCell id="s0nGAhoIwVFG6jky1lM2-133" value="cntr * rght &amp;lt; 0" style="rhombus;whiteSpace=wrap;html=1;strokeWidth=2;fontFamily=JetBrains Mono;fontSize=10;" parent="1" vertex="1">
          <mxGeometry x="1180" y="590" width="200" height="60" as="geometry" />
        </mxCell>
        <mxCell id="s0nGAhoIwVFG6jky1lM2-137" value="centre - центр" style="strokeWidth=2;html=1;shape=mxgraph.flowchart.annotation_1;align=left;pointerEvents=1;fontFamily=JetBrains Mono;fontSize=10;" parent="1" vertex="1">
          <mxGeometry x="1410" y="440" width="10" height="30" as="geometry" />
        </mxCell>
        <mxCell id="s0nGAhoIwVFG6jky1lM2-138" style="edgeStyle=orthogonalEdgeStyle;rounded=0;orthogonalLoop=1;jettySize=auto;html=1;exitX=1;exitY=0.5;exitDx=0;exitDy=0;entryX=0;entryY=0.5;entryDx=0;entryDy=0;entryPerimeter=0;dashed=1;endArrow=none;endFill=0;fontFamily=JetBrains Mono;fontSize=10;" parent="1" source="s0nGAhoIwVFG6jky1lM2-131" target="s0nGAhoIwVFG6jky1lM2-137" edge="1">
          <mxGeometry relative="1" as="geometry" />
        </mxCell>
        <mxCell id="s0nGAhoIwVFG6jky1lM2-141" value="" style="edgeStyle=orthogonalEdgeStyle;rounded=0;orthogonalLoop=1;jettySize=auto;html=1;fontFamily=JetBrains Mono;fontSize=10;" parent="1" source="s0nGAhoIwVFG6jky1lM2-139" target="s0nGAhoIwVFG6jky1lM2-140" edge="1">
          <mxGeometry relative="1" as="geometry" />
        </mxCell>
        <mxCell id="s0nGAhoIwVFG6jky1lM2-139" value="cntr = 2*centre&lt;sup style=&quot;font-size: 10px;&quot;&gt;3&lt;/sup&gt;&amp;nbsp;+ 2*centre&lt;span style=&quot;font-size: 10px;&quot;&gt;&lt;sup style=&quot;font-size: 10px;&quot;&gt;2&lt;/sup&gt;&lt;/span&gt;&amp;nbsp;+ 3centre + 1" style="rounded=0;whiteSpace=wrap;html=1;strokeWidth=2;fontFamily=JetBrains Mono;fontSize=10;" parent="1" vertex="1">
          <mxGeometry x="1180" y="490" width="200" height="30" as="geometry" />
        </mxCell>
        <mxCell id="s0nGAhoIwVFG6jky1lM2-148" style="edgeStyle=orthogonalEdgeStyle;rounded=0;orthogonalLoop=1;jettySize=auto;html=1;exitX=0.5;exitY=1;exitDx=0;exitDy=0;entryX=0.5;entryY=0;entryDx=0;entryDy=0;fontFamily=JetBrains Mono;fontSize=10;" parent="1" source="s0nGAhoIwVFG6jky1lM2-140" target="s0nGAhoIwVFG6jky1lM2-133" edge="1">
          <mxGeometry relative="1" as="geometry" />
        </mxCell>
        <mxCell id="s0nGAhoIwVFG6jky1lM2-140" value="rght = 2*right&lt;sup style=&quot;font-size: 10px;&quot;&gt;3&amp;nbsp;&lt;/sup&gt;+ 2*right&lt;span style=&quot;font-size: 10px;&quot;&gt;&lt;sup style=&quot;font-size: 10px;&quot;&gt;2&lt;/sup&gt;&lt;/span&gt;&amp;nbsp;+ 3right + 1" style="rounded=0;whiteSpace=wrap;html=1;strokeWidth=2;fontFamily=JetBrains Mono;fontSize=10;" parent="1" vertex="1">
          <mxGeometry x="1180" y="540" width="200" height="30" as="geometry" />
        </mxCell>
        <mxCell id="s0nGAhoIwVFG6jky1lM2-145" value="cntr - знач. f(centre),&lt;br style=&quot;font-size: 10px;&quot;&gt;rght - знач. f(right)" style="strokeWidth=2;html=1;shape=mxgraph.flowchart.annotation_1;align=left;pointerEvents=1;fontFamily=JetBrains Mono;fontSize=10;" parent="1" vertex="1">
          <mxGeometry x="1410" y="510" width="10" height="30" as="geometry" />
        </mxCell>
        <mxCell id="s0nGAhoIwVFG6jky1lM2-146" style="rounded=0;orthogonalLoop=1;jettySize=auto;html=1;exitX=1;exitY=0.5;exitDx=0;exitDy=0;entryX=0;entryY=0.5;entryDx=0;entryDy=0;entryPerimeter=0;dashed=1;endArrow=none;endFill=0;fontFamily=JetBrains Mono;fontSize=10;" parent="1" source="s0nGAhoIwVFG6jky1lM2-139" target="s0nGAhoIwVFG6jky1lM2-145" edge="1">
          <mxGeometry relative="1" as="geometry" />
        </mxCell>
        <mxCell id="s0nGAhoIwVFG6jky1lM2-147" style="rounded=0;orthogonalLoop=1;jettySize=auto;html=1;exitX=1;exitY=0.5;exitDx=0;exitDy=0;entryX=0;entryY=0.5;entryDx=0;entryDy=0;entryPerimeter=0;endArrow=none;endFill=0;dashed=1;fontFamily=JetBrains Mono;fontSize=10;" parent="1" source="s0nGAhoIwVFG6jky1lM2-140" target="s0nGAhoIwVFG6jky1lM2-145" edge="1">
          <mxGeometry relative="1" as="geometry" />
        </mxCell>
        <mxCell id="s0nGAhoIwVFG6jky1lM2-155" style="edgeStyle=orthogonalEdgeStyle;rounded=0;orthogonalLoop=1;jettySize=auto;html=1;exitX=0.5;exitY=1;exitDx=0;exitDy=0;entryX=0.5;entryY=1;entryDx=0;entryDy=0;fontFamily=JetBrains Mono;fontSize=10;" parent="1" source="s0nGAhoIwVFG6jky1lM2-149" target="s0nGAhoIwVFG6jky1lM2-129" edge="1">
          <mxGeometry relative="1" as="geometry" />
        </mxCell>
        <mxCell id="s0nGAhoIwVFG6jky1lM2-149" value="left = centre" style="rounded=0;whiteSpace=wrap;html=1;strokeWidth=2;fontFamily=JetBrains Mono;fontSize=10;" parent="1" vertex="1">
          <mxGeometry x="1180" y="670" width="200" height="30" as="geometry" />
        </mxCell>
        <mxCell id="s0nGAhoIwVFG6jky1lM2-156" style="edgeStyle=orthogonalEdgeStyle;rounded=0;orthogonalLoop=1;jettySize=auto;html=1;exitX=0.5;exitY=1;exitDx=0;exitDy=0;entryX=0.5;entryY=1;entryDx=0;entryDy=0;fontFamily=JetBrains Mono;fontSize=10;" parent="1" source="s0nGAhoIwVFG6jky1lM2-151" target="s0nGAhoIwVFG6jky1lM2-129" edge="1">
          <mxGeometry relative="1" as="geometry" />
        </mxCell>
        <mxCell id="s0nGAhoIwVFG6jky1lM2-151" value="right = centre" style="rounded=0;whiteSpace=wrap;html=1;strokeWidth=2;fontFamily=JetBrains Mono;fontSize=10;" parent="1" vertex="1">
          <mxGeometry x="1300" y="719" width="200" height="30" as="geometry" />
        </mxCell>
        <mxCell id="s0nGAhoIwVFG6jky1lM2-161" style="edgeStyle=orthogonalEdgeStyle;rounded=0;orthogonalLoop=1;jettySize=auto;html=1;exitX=0.5;exitY=1;exitDx=0;exitDy=0;entryX=0.5;entryY=0;entryDx=0;entryDy=0;fontFamily=JetBrains Mono;fontSize=10;" parent="1" source="s0nGAhoIwVFG6jky1lM2-159" target="s0nGAhoIwVFG6jky1lM2-124" edge="1">
          <mxGeometry relative="1" as="geometry" />
        </mxCell>
        <mxCell id="s0nGAhoIwVFG6jky1lM2-159" value="Возвращение&lt;br style=&quot;font-size: 10px;&quot;&gt;(left + right) / 2" style="shape=parallelogram;perimeter=parallelogramPerimeter;whiteSpace=wrap;html=1;fixedSize=1;size=30;container=0;strokeWidth=2;fontFamily=JetBrains Mono;fontSize=10;" parent="1" vertex="1">
          <mxGeometry x="1180" y="850" width="200" height="30" as="geometry" />
        </mxCell>
        <mxCell id="s0nGAhoIwVFG6jky1lM2-167" value="" style="edgeStyle=orthogonalEdgeStyle;rounded=0;orthogonalLoop=1;jettySize=auto;html=1;fontFamily=JetBrains Mono;fontSize=10;" parent="1" source="s0nGAhoIwVFG6jky1lM2-162" target="s0nGAhoIwVFG6jky1lM2-164" edge="1">
          <mxGeometry relative="1" as="geometry" />
        </mxCell>
        <mxCell id="s0nGAhoIwVFG6jky1lM2-162" value="Начало&lt;div style=&quot;font-size: 10px;&quot;&gt;integrate&lt;/div&gt;" style="rounded=1;whiteSpace=wrap;html=1;arcSize=50;container=0;strokeWidth=2;fontFamily=JetBrains Mono;fontSize=10;" parent="1" vertex="1">
          <mxGeometry x="840" y="10" width="200" height="30" as="geometry" />
        </mxCell>
        <mxCell id="s0nGAhoIwVFG6jky1lM2-163" value="Конец&lt;div style=&quot;font-size: 10px;&quot;&gt;integrate&lt;/div&gt;" style="rounded=1;whiteSpace=wrap;html=1;arcSize=50;container=0;strokeWidth=2;fontFamily=JetBrains Mono;fontSize=10;" parent="1" vertex="1">
          <mxGeometry x="840" y="730" width="200" height="30" as="geometry" />
        </mxCell>
        <mxCell id="s0nGAhoIwVFG6jky1lM2-169" style="edgeStyle=orthogonalEdgeStyle;rounded=0;orthogonalLoop=1;jettySize=auto;html=1;exitX=0.5;exitY=1;exitDx=0;exitDy=0;entryX=0.5;entryY=0;entryDx=0;entryDy=0;fontFamily=JetBrains Mono;fontSize=10;" parent="1" source="s0nGAhoIwVFG6jky1lM2-164" target="s0nGAhoIwVFG6jky1lM2-168" edge="1">
          <mxGeometry relative="1" as="geometry" />
        </mxCell>
        <mxCell id="s0nGAhoIwVFG6jky1lM2-164" value="a, b, n" style="shape=parallelogram;perimeter=parallelogramPerimeter;whiteSpace=wrap;html=1;fixedSize=1;size=30;container=0;strokeWidth=2;fontFamily=JetBrains Mono;fontSize=10;" parent="1" vertex="1">
          <mxGeometry x="840" y="60" width="200" height="30" as="geometry" />
        </mxCell>
        <mxCell id="s0nGAhoIwVFG6jky1lM2-165" value="по значению" style="strokeWidth=2;html=1;shape=mxgraph.flowchart.annotation_1;align=left;pointerEvents=1;fontFamily=JetBrains Mono;fontSize=10;" parent="1" vertex="1">
          <mxGeometry x="1080" y="60" width="10" height="30" as="geometry" />
        </mxCell>
        <mxCell id="s0nGAhoIwVFG6jky1lM2-166" style="edgeStyle=orthogonalEdgeStyle;rounded=0;orthogonalLoop=1;jettySize=auto;html=1;exitX=1;exitY=0.5;exitDx=0;exitDy=0;entryX=0;entryY=0.5;entryDx=0;entryDy=0;entryPerimeter=0;dashed=1;endArrow=none;endFill=0;fontFamily=JetBrains Mono;fontSize=10;" parent="1" source="s0nGAhoIwVFG6jky1lM2-164" target="s0nGAhoIwVFG6jky1lM2-165" edge="1">
          <mxGeometry relative="1" as="geometry" />
        </mxCell>
        <mxCell id="s0nGAhoIwVFG6jky1lM2-171" value="" style="edgeStyle=orthogonalEdgeStyle;rounded=0;orthogonalLoop=1;jettySize=auto;html=1;dashed=1;endArrow=none;endFill=0;fontFamily=JetBrains Mono;fontSize=10;" parent="1" source="s0nGAhoIwVFG6jky1lM2-168" target="s0nGAhoIwVFG6jky1lM2-170" edge="1">
          <mxGeometry relative="1" as="geometry" />
        </mxCell>
        <mxCell id="s0nGAhoIwVFG6jky1lM2-173" style="edgeStyle=orthogonalEdgeStyle;rounded=0;orthogonalLoop=1;jettySize=auto;html=1;exitX=0.5;exitY=1;exitDx=0;exitDy=0;entryX=0.5;entryY=0;entryDx=0;entryDy=0;fontFamily=JetBrains Mono;fontSize=10;" parent="1" source="s0nGAhoIwVFG6jky1lM2-168" target="s0nGAhoIwVFG6jky1lM2-172" edge="1">
          <mxGeometry relative="1" as="geometry" />
        </mxCell>
        <mxCell id="s0nGAhoIwVFG6jky1lM2-168" value="width = (b-a)/n" style="rounded=0;whiteSpace=wrap;html=1;strokeWidth=2;fontFamily=JetBrains Mono;fontSize=10;" parent="1" vertex="1">
          <mxGeometry x="840" y="110" width="200" height="30" as="geometry" />
        </mxCell>
        <mxCell id="s0nGAhoIwVFG6jky1lM2-170" value="width - ширина&lt;div style=&quot;font-size: 10px;&quot;&gt;прямоугольника&lt;/div&gt;" style="strokeWidth=2;html=1;shape=mxgraph.flowchart.annotation_1;align=left;pointerEvents=1;fontFamily=JetBrains Mono;fontSize=10;" parent="1" vertex="1">
          <mxGeometry x="1080" y="110" width="10" height="30" as="geometry" />
        </mxCell>
        <mxCell id="s0nGAhoIwVFG6jky1lM2-175" value="" style="edgeStyle=orthogonalEdgeStyle;rounded=0;orthogonalLoop=1;jettySize=auto;html=1;dashed=1;endArrow=none;endFill=0;fontFamily=JetBrains Mono;fontSize=10;" parent="1" source="s0nGAhoIwVFG6jky1lM2-172" target="s0nGAhoIwVFG6jky1lM2-174" edge="1">
          <mxGeometry relative="1" as="geometry" />
        </mxCell>
        <mxCell id="s0nGAhoIwVFG6jky1lM2-211" style="edgeStyle=orthogonalEdgeStyle;rounded=0;orthogonalLoop=1;jettySize=auto;html=1;exitX=0.5;exitY=1;exitDx=0;exitDy=0;entryX=0.5;entryY=0;entryDx=0;entryDy=0;" parent="1" source="s0nGAhoIwVFG6jky1lM2-172" target="s0nGAhoIwVFG6jky1lM2-178" edge="1">
          <mxGeometry relative="1" as="geometry" />
        </mxCell>
        <mxCell id="s0nGAhoIwVFG6jky1lM2-172" value="area = 0" style="rounded=0;whiteSpace=wrap;html=1;strokeWidth=2;fontFamily=JetBrains Mono;fontSize=10;" parent="1" vertex="1">
          <mxGeometry x="840" y="160" width="200" height="30" as="geometry" />
        </mxCell>
        <mxCell id="s0nGAhoIwVFG6jky1lM2-174" value="area - площадь" style="strokeWidth=2;html=1;shape=mxgraph.flowchart.annotation_1;align=left;pointerEvents=1;fontFamily=JetBrains Mono;fontSize=10;" parent="1" vertex="1">
          <mxGeometry x="1080" y="160" width="10" height="30" as="geometry" />
        </mxCell>
        <mxCell id="s0nGAhoIwVFG6jky1lM2-185" style="edgeStyle=orthogonalEdgeStyle;rounded=0;orthogonalLoop=1;jettySize=auto;html=1;exitX=0.5;exitY=0;exitDx=0;exitDy=0;entryX=0.5;entryY=0;entryDx=0;entryDy=0;fontFamily=JetBrains Mono;fontSize=10;" parent="1" source="s0nGAhoIwVFG6jky1lM2-176" target="s0nGAhoIwVFG6jky1lM2-184" edge="1">
          <mxGeometry relative="1" as="geometry" />
        </mxCell>
        <mxCell id="s0nGAhoIwVFG6jky1lM2-176" value="&lt;div style=&quot;font-size: 10px;&quot;&gt;&lt;br style=&quot;font-size: 10px;&quot;&gt;&lt;/div&gt;&lt;div style=&quot;font-size: 10px;&quot;&gt;Гооол&lt;/div&gt;" style="shape=loopLimit;whiteSpace=wrap;html=1;size=20;direction=west;strokeWidth=2;fontFamily=JetBrains Mono;fontSize=10;" parent="1" vertex="1">
          <mxGeometry x="840" y="620.72" width="200" height="41" as="geometry" />
        </mxCell>
        <mxCell id="s0nGAhoIwVFG6jky1lM2-188" style="edgeStyle=orthogonalEdgeStyle;rounded=0;orthogonalLoop=1;jettySize=auto;html=1;exitX=0.5;exitY=1;exitDx=0;exitDy=0;entryX=0.5;entryY=0;entryDx=0;entryDy=0;fontFamily=JetBrains Mono;fontSize=10;" parent="1" source="s0nGAhoIwVFG6jky1lM2-177" target="s0nGAhoIwVFG6jky1lM2-187" edge="1">
          <mxGeometry relative="1" as="geometry" />
        </mxCell>
        <mxCell id="s0nGAhoIwVFG6jky1lM2-177" value="&lt;div style=&quot;font-size: 10px;&quot;&gt;Гооол&lt;/div&gt;&lt;div style=&quot;font-size: 10px;&quot;&gt;i &amp;gt;= n&lt;/div&gt;" style="shape=loopLimit;whiteSpace=wrap;html=1;size=18;direction=east;strokeWidth=2;fontFamily=JetBrains Mono;fontSize=10;" parent="1" vertex="1">
          <mxGeometry x="840" y="260" width="200" height="39" as="geometry" />
        </mxCell>
        <mxCell id="s0nGAhoIwVFG6jky1lM2-210" style="edgeStyle=orthogonalEdgeStyle;rounded=0;orthogonalLoop=1;jettySize=auto;html=1;exitX=0.5;exitY=1;exitDx=0;exitDy=0;entryX=0.5;entryY=0;entryDx=0;entryDy=0;" parent="1" source="s0nGAhoIwVFG6jky1lM2-178" target="s0nGAhoIwVFG6jky1lM2-177" edge="1">
          <mxGeometry relative="1" as="geometry" />
        </mxCell>
        <mxCell id="s0nGAhoIwVFG6jky1lM2-178" value="i = 0" style="rounded=0;whiteSpace=wrap;html=1;strokeWidth=2;fontFamily=JetBrains Mono;fontSize=10;" parent="1" vertex="1">
          <mxGeometry x="840" y="210" width="200" height="30" as="geometry" />
        </mxCell>
        <mxCell id="s0nGAhoIwVFG6jky1lM2-181" value="" style="edgeStyle=orthogonalEdgeStyle;rounded=0;orthogonalLoop=1;jettySize=auto;html=1;dashed=1;endArrow=none;endFill=0;fontFamily=JetBrains Mono;fontSize=10;" parent="1" source="s0nGAhoIwVFG6jky1lM2-179" target="s0nGAhoIwVFG6jky1lM2-178" edge="1">
          <mxGeometry relative="1" as="geometry" />
        </mxCell>
        <mxCell id="s0nGAhoIwVFG6jky1lM2-179" value="i - счетчик" style="strokeWidth=2;html=1;shape=mxgraph.flowchart.annotation_1;align=left;pointerEvents=1;fontFamily=JetBrains Mono;fontSize=10;" parent="1" vertex="1">
          <mxGeometry x="1080" y="210" width="10" height="30" as="geometry" />
        </mxCell>
        <mxCell id="s0nGAhoIwVFG6jky1lM2-183" style="edgeStyle=orthogonalEdgeStyle;rounded=0;orthogonalLoop=1;jettySize=auto;html=1;exitX=0.5;exitY=1;exitDx=0;exitDy=0;entryX=0.5;entryY=1;entryDx=0;entryDy=0;fontFamily=JetBrains Mono;fontSize=10;" parent="1" source="s0nGAhoIwVFG6jky1lM2-182" target="s0nGAhoIwVFG6jky1lM2-176" edge="1">
          <mxGeometry relative="1" as="geometry" />
        </mxCell>
        <mxCell id="s0nGAhoIwVFG6jky1lM2-182" value="i = i + 1" style="rounded=0;whiteSpace=wrap;html=1;strokeWidth=2;fontFamily=JetBrains Mono;fontSize=10;" parent="1" vertex="1">
          <mxGeometry x="840" y="570" width="200" height="30" as="geometry" />
        </mxCell>
        <mxCell id="s0nGAhoIwVFG6jky1lM2-186" style="edgeStyle=orthogonalEdgeStyle;rounded=0;orthogonalLoop=1;jettySize=auto;html=1;exitX=0.5;exitY=1;exitDx=0;exitDy=0;entryX=0.5;entryY=0;entryDx=0;entryDy=0;fontFamily=JetBrains Mono;fontSize=10;" parent="1" source="s0nGAhoIwVFG6jky1lM2-184" target="s0nGAhoIwVFG6jky1lM2-163" edge="1">
          <mxGeometry relative="1" as="geometry" />
        </mxCell>
        <mxCell id="s0nGAhoIwVFG6jky1lM2-184" value="Возвращение area" style="shape=parallelogram;perimeter=parallelogramPerimeter;whiteSpace=wrap;html=1;fixedSize=1;size=30;container=0;strokeWidth=2;fontFamily=JetBrains Mono;fontSize=10;" parent="1" vertex="1">
          <mxGeometry x="840" y="680" width="200" height="30" as="geometry" />
        </mxCell>
        <mxCell id="s0nGAhoIwVFG6jky1lM2-190" style="edgeStyle=orthogonalEdgeStyle;rounded=0;orthogonalLoop=1;jettySize=auto;html=1;exitX=0.5;exitY=1;exitDx=0;exitDy=0;entryX=0.5;entryY=0;entryDx=0;entryDy=0;fontFamily=JetBrains Mono;fontSize=10;" parent="1" source="s0nGAhoIwVFG6jky1lM2-187" target="s0nGAhoIwVFG6jky1lM2-189" edge="1">
          <mxGeometry relative="1" as="geometry" />
        </mxCell>
        <mxCell id="s0nGAhoIwVFG6jky1lM2-187" value="x = a + (i + 0.5) * width" style="rounded=0;whiteSpace=wrap;html=1;strokeWidth=2;fontFamily=JetBrains Mono;fontSize=10;" parent="1" vertex="1">
          <mxGeometry x="840" y="320" width="200" height="30" as="geometry" />
        </mxCell>
        <mxCell id="s0nGAhoIwVFG6jky1lM2-193" style="edgeStyle=orthogonalEdgeStyle;rounded=0;orthogonalLoop=1;jettySize=auto;html=1;exitX=0.5;exitY=1;exitDx=0;exitDy=0;entryX=0.5;entryY=0;entryDx=0;entryDy=0;fontFamily=JetBrains Mono;fontSize=10;" parent="1" source="s0nGAhoIwVFG6jky1lM2-189" target="s0nGAhoIwVFG6jky1lM2-191" edge="1">
          <mxGeometry relative="1" as="geometry" />
        </mxCell>
        <mxCell id="s0nGAhoIwVFG6jky1lM2-189" value="y = 2x&lt;sup style=&quot;font-size: 10px;&quot;&gt;3&amp;nbsp;&lt;/sup&gt;+ 2x&lt;span style=&quot;font-size: 10px;&quot;&gt;&lt;sup style=&quot;font-size: 10px;&quot;&gt;2&lt;/sup&gt;&lt;/span&gt;&amp;nbsp;+ 3x + 1" style="rounded=0;whiteSpace=wrap;html=1;strokeWidth=2;fontFamily=JetBrains Mono;fontSize=10;" parent="1" vertex="1">
          <mxGeometry x="840" y="370" width="200" height="30" as="geometry" />
        </mxCell>
        <mxCell id="s0nGAhoIwVFG6jky1lM2-194" style="edgeStyle=orthogonalEdgeStyle;rounded=0;orthogonalLoop=1;jettySize=auto;html=1;exitX=0.5;exitY=1;exitDx=0;exitDy=0;entryX=0.5;entryY=0;entryDx=0;entryDy=0;fontFamily=JetBrains Mono;fontSize=10;" parent="1" source="s0nGAhoIwVFG6jky1lM2-191" target="s0nGAhoIwVFG6jky1lM2-192" edge="1">
          <mxGeometry relative="1" as="geometry" />
        </mxCell>
        <mxCell id="s0nGAhoIwVFG6jky1lM2-195" value="1" style="edgeLabel;html=1;align=center;verticalAlign=middle;resizable=0;points=[];fontFamily=JetBrains Mono;fontSize=10;" parent="s0nGAhoIwVFG6jky1lM2-194" vertex="1" connectable="0">
          <mxGeometry x="-0.2407" relative="1" as="geometry">
            <mxPoint x="10" y="3" as="offset" />
          </mxGeometry>
        </mxCell>
        <mxCell id="s0nGAhoIwVFG6jky1lM2-196" style="edgeStyle=orthogonalEdgeStyle;rounded=0;orthogonalLoop=1;jettySize=auto;html=1;exitX=1;exitY=0.5;exitDx=0;exitDy=0;entryX=0.5;entryY=0;entryDx=0;entryDy=0;fontFamily=JetBrains Mono;fontSize=10;" parent="1" source="s0nGAhoIwVFG6jky1lM2-191" target="s0nGAhoIwVFG6jky1lM2-182" edge="1">
          <mxGeometry relative="1" as="geometry">
            <Array as="points">
              <mxPoint x="1060" y="452" />
              <mxPoint x="1060" y="550" />
              <mxPoint x="940" y="550" />
            </Array>
          </mxGeometry>
        </mxCell>
        <mxCell id="s0nGAhoIwVFG6jky1lM2-198" value="0" style="edgeLabel;html=1;align=center;verticalAlign=middle;resizable=0;points=[];fontFamily=JetBrains Mono;fontSize=10;" parent="s0nGAhoIwVFG6jky1lM2-196" vertex="1" connectable="0">
          <mxGeometry x="-0.9163" y="-2" relative="1" as="geometry">
            <mxPoint x="-11" y="-12" as="offset" />
          </mxGeometry>
        </mxCell>
        <mxCell id="s0nGAhoIwVFG6jky1lM2-191" value="y &amp;gt; 0" style="rhombus;whiteSpace=wrap;html=1;strokeWidth=2;fontFamily=JetBrains Mono;fontSize=10;" parent="1" vertex="1">
          <mxGeometry x="840" y="422" width="200" height="60" as="geometry" />
        </mxCell>
        <mxCell id="s0nGAhoIwVFG6jky1lM2-197" style="edgeStyle=orthogonalEdgeStyle;rounded=0;orthogonalLoop=1;jettySize=auto;html=1;exitX=0.5;exitY=1;exitDx=0;exitDy=0;entryX=0.5;entryY=0;entryDx=0;entryDy=0;fontFamily=JetBrains Mono;fontSize=10;" parent="1" source="s0nGAhoIwVFG6jky1lM2-192" target="s0nGAhoIwVFG6jky1lM2-182" edge="1">
          <mxGeometry relative="1" as="geometry" />
        </mxCell>
        <mxCell id="s0nGAhoIwVFG6jky1lM2-192" value="area = area + y * width" style="rounded=0;whiteSpace=wrap;html=1;strokeWidth=2;fontFamily=JetBrains Mono;fontSize=10;" parent="1" vertex="1">
          <mxGeometry x="840" y="500" width="200" height="30" as="geometry" />
        </mxCell>
        <mxCell id="s0nGAhoIwVFG6jky1lM2-205" style="edgeStyle=orthogonalEdgeStyle;rounded=0;orthogonalLoop=1;jettySize=auto;html=1;exitX=0.5;exitY=1;exitDx=0;exitDy=0;entryX=0.5;entryY=0;entryDx=0;entryDy=0;fontFamily=JetBrains Mono;fontSize=10;" parent="1" source="s0nGAhoIwVFG6jky1lM2-199" target="s0nGAhoIwVFG6jky1lM2-202" edge="1">
          <mxGeometry relative="1" as="geometry" />
        </mxCell>
        <mxCell id="s0nGAhoIwVFG6jky1lM2-199" value="Начало&lt;div style=&quot;font-size: 10px;&quot;&gt;antidirivative&lt;/div&gt;" style="rounded=1;whiteSpace=wrap;html=1;arcSize=50;container=0;strokeWidth=2;fontFamily=JetBrains Mono;fontSize=10;" parent="1" vertex="1">
          <mxGeometry x="1180" y="10" width="200" height="30" as="geometry" />
        </mxCell>
        <mxCell id="s0nGAhoIwVFG6jky1lM2-200" value="Конец&lt;div style=&quot;font-size: 10px;&quot;&gt;antidirivative&lt;/div&gt;" style="rounded=1;whiteSpace=wrap;html=1;arcSize=50;container=0;strokeWidth=2;fontFamily=JetBrains Mono;fontSize=10;" parent="1" vertex="1">
          <mxGeometry x="1180" y="210" width="200" height="30" as="geometry" />
        </mxCell>
        <mxCell id="s0nGAhoIwVFG6jky1lM2-209" style="edgeStyle=orthogonalEdgeStyle;rounded=0;orthogonalLoop=1;jettySize=auto;html=1;exitX=0.5;exitY=1;exitDx=0;exitDy=0;entryX=0.5;entryY=0;entryDx=0;entryDy=0;fontFamily=JetBrains Mono;fontSize=10;" parent="1" source="s0nGAhoIwVFG6jky1lM2-201" target="s0nGAhoIwVFG6jky1lM2-200" edge="1">
          <mxGeometry relative="1" as="geometry" />
        </mxCell>
        <mxCell id="s0nGAhoIwVFG6jky1lM2-201" value="Возвращение res" style="shape=parallelogram;perimeter=parallelogramPerimeter;whiteSpace=wrap;html=1;fixedSize=1;size=30;container=0;strokeWidth=2;fontFamily=JetBrains Mono;fontSize=10;" parent="1" vertex="1">
          <mxGeometry x="1180" y="160" width="200" height="30" as="geometry" />
        </mxCell>
        <mxCell id="s0nGAhoIwVFG6jky1lM2-207" style="edgeStyle=orthogonalEdgeStyle;rounded=0;orthogonalLoop=1;jettySize=auto;html=1;exitX=0.5;exitY=1;exitDx=0;exitDy=0;entryX=0.5;entryY=0;entryDx=0;entryDy=0;fontFamily=JetBrains Mono;fontSize=10;" parent="1" source="s0nGAhoIwVFG6jky1lM2-202" target="s0nGAhoIwVFG6jky1lM2-206" edge="1">
          <mxGeometry relative="1" as="geometry" />
        </mxCell>
        <mxCell id="s0nGAhoIwVFG6jky1lM2-202" value="x" style="shape=parallelogram;perimeter=parallelogramPerimeter;whiteSpace=wrap;html=1;fixedSize=1;size=30;container=0;strokeWidth=2;fontFamily=JetBrains Mono;fontSize=10;" parent="1" vertex="1">
          <mxGeometry x="1180" y="60" width="200" height="30" as="geometry" />
        </mxCell>
        <mxCell id="s0nGAhoIwVFG6jky1lM2-203" value="по значению" style="strokeWidth=2;html=1;shape=mxgraph.flowchart.annotation_1;align=left;pointerEvents=1;fontFamily=JetBrains Mono;fontSize=10;" parent="1" vertex="1">
          <mxGeometry x="1410" y="60" width="10" height="30" as="geometry" />
        </mxCell>
        <mxCell id="s0nGAhoIwVFG6jky1lM2-204" style="edgeStyle=orthogonalEdgeStyle;rounded=0;orthogonalLoop=1;jettySize=auto;html=1;exitX=1;exitY=0.5;exitDx=0;exitDy=0;entryX=0;entryY=0.5;entryDx=0;entryDy=0;entryPerimeter=0;dashed=1;endArrow=none;endFill=0;fontFamily=JetBrains Mono;fontSize=10;" parent="1" source="s0nGAhoIwVFG6jky1lM2-202" target="s0nGAhoIwVFG6jky1lM2-203" edge="1">
          <mxGeometry relative="1" as="geometry" />
        </mxCell>
        <mxCell id="s0nGAhoIwVFG6jky1lM2-208" style="edgeStyle=orthogonalEdgeStyle;rounded=0;orthogonalLoop=1;jettySize=auto;html=1;exitX=0.5;exitY=1;exitDx=0;exitDy=0;entryX=0.5;entryY=0;entryDx=0;entryDy=0;fontFamily=JetBrains Mono;fontSize=10;" parent="1" source="s0nGAhoIwVFG6jky1lM2-206" target="s0nGAhoIwVFG6jky1lM2-201" edge="1">
          <mxGeometry relative="1" as="geometry" />
        </mxCell>
        <mxCell id="s0nGAhoIwVFG6jky1lM2-206" value="res = 1/2x&lt;sup style=&quot;font-size: 10px;&quot;&gt;4&lt;/sup&gt;&amp;nbsp;+ 2/3x&lt;sup style=&quot;font-size: 10px;&quot;&gt;3&lt;/sup&gt;&amp;nbsp;+ 3/2x&lt;sup style=&quot;font-size: 10px;&quot;&gt;2&lt;/sup&gt;&amp;nbsp;+ x" style="rounded=0;whiteSpace=wrap;html=1;strokeWidth=2;fontFamily=JetBrains Mono;fontSize=10;" parent="1" vertex="1">
          <mxGeometry x="1180" y="109" width="200" height="30" as="geometry" />
        </mxCell>
      </root>
    </mxGraphModel>
  </diagram>
</mxfile>
